/* XPM */
static char *d186de3d5dcc47a9dcec1ffbd937b278jRkG5CYKaz9whryx[] = {
/* columns rows colors chars-per-pixel */
"20 20 68 1 ",
"  c None",
". c #2D212F",
"X c #2E212E",
"o c #2E222E",
"O c #2E222F",
"+ c #312331",
"@ c #3B2937",
"# c #322A3F",
"$ c #402630",
"% c #452730",
"& c #442739",
"* c #41283C",
"= c #42283D",
"- c #44283E",
"; c #45293F",
": c #532B3D",
"> c #592C3C",
", c #6E2727",
"< c #612D3B",
"1 c #602C3C",
"2 c #752F39",
"3 c #353250",
"4 c #363453",
"5 c #5F3445",
"6 c #5D364A",
"7 c #4D456D",
"8 c #484A77",
"9 c #8D312B",
"0 c #803034",
"q c #833137",
"w c #893130",
"e c #893236",
"r c #893237",
"t c #8A3236",
"y c #973435",
"u c #983434",
"i c #A83A2F",
"p c #A23531",
"a c #A33531",
"s c #A53633",
"d c #A33D33",
"f c #A43E33",
"g c #AF3C35",
"h c #B33831",
"j c #B73931",
"k c #B43C32",
"l c #BA3B32",
"z c #BC3F31",
"x c #C03D32",
"c c #C13E32",
"v c #AC4139",
"b c #BC4030",
"n c #B34238",
"m c #C74032",
"M c #C14436",
"N c #C84133",
"B c #D54634",
"V c #EA4F36",
"C c #AD4D4E",
"Z c #BB4741",
"A c #B24844",
"S c #854F66",
"D c #AE5765",
"F c #C14944",
"G c #414B81",
"H c #4A5795",
"J c #735482",
"K c #4D65B4",
/* pixels */
"                    ",
"                    ",
"                    ",
"             OOOO   ",
"             33334  ",
"       %%%@##KKKKGO ",
"  OOOOOVVVDKKKKKKGO ",
" OfVVVV,,,588888HJaO",
"Odi9999,,6788888SFaO",
"OkzbbbbbbACCCCCCZxaO",
"OaNMvnBBBBBBBBBBgeqO",
"Oahe>:hhhhjxxxjhe>*O",
"Oahhu:hhhhmVVVlhhe*O",
"Oahhhs;;yhhhhhhhhe*O",
" $whhhss<:2hhhhhq&+O",
"          1<<<<<:*  ",
"           ;;;;;;   ",
"                    ",
"                    ",
"                    "
};
