/* XPM */
static char * bed_xpm[] = {
"40 40 869 2",
"  	c #159E2F",
". 	c #188639",
"+ 	c #1A7B3E",
"@ 	c #1A7C3D",
"# 	c #19863A",
"$ 	c #19A823",
"% 	c #1A9134",
"& 	c #1A7F3C",
"* 	c #1A7E3D",
"= 	c #1A813B",
"- 	c #188D36",
"; 	c #199435",
"> 	c #1F8938",
", 	c #19B31F",
"' 	c #198B34",
") 	c #1A9B31",
"! 	c #36BB26",
"~ 	c #52BC34",
"{ 	c #51BA35",
"] 	c #2AA731",
"^ 	c #178939",
"/ 	c #197F3C",
"( 	c #169333",
"_ 	c #19843A",
": 	c #1A7D3D",
"< 	c #169932",
"[ 	c #178F36",
"} 	c #18873A",
"| 	c #169632",
"1 	c #1C813C",
"2 	c #46AC38",
"3 	c #41A439",
"4 	c #1D9531",
"5 	c #19B21E",
"6 	c #149F2E",
"7 	c #1A7A3E",
"8 	c #169433",
"9 	c #188E32",
"0 	c #18A128",
"a 	c #189E2C",
"b 	c #168F35",
"c 	c #18823A",
"d 	c #19A029",
"e 	c #19A725",
"f 	c #18962E",
"g 	c #2C9239",
"h 	c #3EAC33",
"i 	c #20B71E",
"j 	c #198C35",
"k 	c #329E36",
"l 	c #3FB032",
"m 	c #30933A",
"n 	c #2E8F3B",
"o 	c #21893A",
"p 	c #19833A",
"q 	c #19803C",
"r 	c #179134",
"s 	c #197F3D",
"t 	c #2A8C3C",
"u 	c #3C9E39",
"v 	c #39A236",
"w 	c #1D9034",
"x 	c #188A39",
"y 	c #18853A",
"z 	c #178F35",
"A 	c #1F8F38",
"B 	c #38A335",
"C 	c #26B423",
"D 	c #15AD23",
"E 	c #24A230",
"F 	c #3BA834",
"G 	c #1FB61E",
"H 	c #18B01F",
"I 	c #2CA82E",
"J 	c #4CAF38",
"K 	c #4FBD33",
"L 	c #24AF25",
"M 	c #1A8638",
"N 	c #2D8C3D",
"O 	c #319737",
"P 	c #199036",
"Q 	c #189C2F",
"R 	c #198339",
"S 	c #1A8F35",
"T 	c #19A02D",
"U 	c #1A9C2F",
"V 	c #1A803A",
"W 	c #188A38",
"X 	c #19823B",
"Y 	c #178C37",
"Z 	c #1A7F3D",
"` 	c #179036",
" .	c #178D37",
"..	c #2D8C3C",
"+.	c #319837",
"@.	c #1B7C3E",
"#.	c #28893C",
"$.	c #249A35",
"%.	c #179533",
"&.	c #20823D",
"*.	c #3CA437",
"=.	c #38B72A",
"-.	c #21AD28",
";.	c #2CA92F",
">.	c #4FBE32",
",.	c #27B424",
"'.	c #16A42A",
").	c #2CA533",
"!.	c #45B134",
"~.	c #3FB92D",
"{.	c #1EA42D",
"].	c #1A843A",
"^.	c #18972F",
"/.	c #15A02D",
"(.	c #18B41D",
"_.	c #198D34",
":.	c #199033",
"<.	c #19A923",
"[.	c #18B21F",
"}.	c #198637",
"|.	c #169633",
"1.	c #169930",
"2.	c #198837",
"3.	c #19813B",
"4.	c #159A30",
"5.	c #188B37",
"6.	c #159C2F",
"7.	c #179035",
"8.	c #1A803C",
"9.	c #169334",
"0.	c #29893C",
"a.	c #45A838",
"b.	c #38AA32",
"c.	c #179433",
"d.	c #1A833B",
"e.	c #20823C",
"f.	c #4BB037",
"g.	c #37B12F",
"h.	c #2DAC2E",
"i.	c #4FBB34",
"j.	c #24A330",
"k.	c #14A02E",
"l.	c #189135",
"m.	c #1C9434",
"n.	c #1AB51C",
"o.	c #15A42B",
"p.	c #198A37",
"q.	c #199B2F",
"r.	c #17AA25",
"s.	c #159F2E",
"t.	c #18B51C",
"u.	c #199232",
"v.	c #1A7C3E",
"w.	c #199132",
"x.	c #18B021",
"y.	c #169931",
"z.	c #16AD23",
"A.	c #19A827",
"B.	c #169732",
"C.	c #19823C",
"D.	c #179235",
"E.	c #4DB337",
"F.	c #31943A",
"G.	c #1D803C",
"H.	c #198D33",
"I.	c #19AA23",
"J.	c #1E8937",
"K.	c #48AB38",
"L.	c #36B829",
"M.	c #2DB923",
"N.	c #4BB635",
"O.	c #268C3A",
"P.	c #159832",
"Q.	c #188E35",
"R.	c #1A9334",
"S.	c #18B41C",
"T.	c #19A62B",
"U.	c #18AC22",
"V.	c #19A12A",
"W.	c #18B21E",
"X.	c #15A429",
"Y.	c #188838",
"Z.	c #179B2E",
"`.	c #198538",
" +	c #18A926",
".+	c #16AB24",
"++	c #169832",
"@+	c #1E823C",
"#+	c #1B7D3D",
"$+	c #1E803D",
"%+	c #55BC36",
"&+	c #2F903B",
"*+	c #19793E",
"=+	c #199131",
"-+	c #19992F",
";+	c #2B903A",
">+	c #24A729",
",+	c #20BB1B",
"'+	c #2DB127",
")+	c #1E8739",
"!+	c #19833B",
"~+	c #1A803B",
"{+	c #199334",
"]+	c #1EB71C",
"^+	c #45B830",
"/+	c #23B81E",
"(+	c #16A926",
"_+	c #159632",
":+	c #199035",
"<+	c #169C2F",
"[+	c #188B38",
"}+	c #1A813A",
"|+	c #19A326",
"1+	c #19982E",
"2+	c #1A7D39",
"3+	c #247D3C",
"4+	c #429C38",
"5+	c #277D3C",
"6+	c #1B743D",
"7+	c #20753B",
"8+	c #46A738",
"9+	c #258E38",
"0+	c #19813C",
"a+	c #19853A",
"b+	c #169533",
"c+	c #54BD35",
"d+	c #2BA034",
"e+	c #18833B",
"f+	c #18B61C",
"g+	c #169F2B",
"h+	c #18843A",
"i+	c #198C34",
"j+	c #189C2C",
"k+	c #16A529",
"l+	c #26A131",
"m+	c #3CBB29",
"n+	c #55C033",
"o+	c #44BE2C",
"p+	c #2DB02B",
"q+	c #23A72F",
"r+	c #38AF31",
"s+	c #1C7F3D",
"t+	c #1F6E3B",
"u+	c #294F2F",
"v+	c #2B4230",
"w+	c #2C3731",
"x+	c #2D3C31",
"y+	c #344C30",
"z+	c #2E3C31",
"A+	c #2C3431",
"B+	c #50A334",
"C+	c #298A3B",
"D+	c #178C36",
"E+	c #48AF37",
"F+	c #289F34",
"G+	c #199133",
"H+	c #19A927",
"I+	c #169831",
"J+	c #189035",
"K+	c #1A823B",
"L+	c #179233",
"M+	c #2D9F34",
"N+	c #48AF36",
"O+	c #4BB135",
"P+	c #4AAF36",
"Q+	c #36A234",
"R+	c #32A432",
"S+	c #52B735",
"T+	c #1E7F3C",
"U+	c #1A7C3C",
"V+	c #1B7A3D",
"W+	c #1A793D",
"X+	c #206C3A",
"Y+	c #2D3235",
"Z+	c #2F2535",
"`+	c #2E1D35",
" @	c #4E9C36",
".@	c #29873B",
"+@	c #187A3E",
"@@	c #1A793E",
"#@	c #1A8837",
"$@	c #19A626",
"%@	c #1A9730",
"&@	c #1C7D3E",
"*@	c #25853D",
"=@	c #189D30",
"-@	c #179135",
";@	c #1C733E",
">@	c #225C36",
",@	c #22642F",
"'@	c #245633",
")@	c #245036",
"!@	c #336435",
"~@	c #417932",
"{@	c #256A2E",
"]@	c #23692E",
"^@	c #255B33",
"/@	c #2A5F44",
"(@	c #3C4A77",
"_@	c #404B82",
":@	c #404A83",
"<@	c #43724D",
"[@	c #2C5E35",
"}@	c #216738",
"|@	c #1E843C",
"1@	c #27883C",
"2@	c #19A426",
"3@	c #199332",
"4@	c #189234",
"5@	c #25863D",
"6@	c #47AC38",
"7@	c #24A42F",
"8@	c #169135",
"9@	c #1D703C",
"0@	c #293B32",
"a@	c #2D1D2F",
"b@	c #2D1F2F",
"c@	c #2C1B2F",
"d@	c #2E1D2F",
"e@	c #2E1E2E",
"f@	c #2E1D2E",
"g@	c #363358",
"h@	c #495DA5",
"i@	c #4D66B5",
"j@	c #4E66B6",
"k@	c #37365F",
"l@	c #25642F",
"m@	c #2DA533",
"n@	c #4DB436",
"o@	c #1B7E3B",
"p@	c #1E9022",
"q@	c #1D852C",
"r@	c #1D7434",
"s@	c #1E6D38",
"t@	c #297239",
"u@	c #489535",
"v@	c #489932",
"w@	c #348136",
"x@	c #265E39",
"y@	c #533B32",
"z@	c #612D30",
"A@	c #5E2E33",
"B@	c #433148",
"C@	c #353352",
"D@	c #363352",
"E@	c #363351",
"F@	c #3C416E",
"G@	c #4A5FA9",
"H@	c #4D65B4",
"I@	c #37385F",
"J@	c #2E2030",
"K@	c #3F7C31",
"L@	c #41A937",
"M@	c #1F683A",
"N@	c #2D282E",
"O@	c #2D2A2F",
"P@	c #2D272F",
"Q@	c #2D262F",
"R@	c #2F2B2F",
"S@	c #2F2C2F",
"T@	c #2D292F",
"U@	c #4B2B30",
"V@	c #C64634",
"W@	c #E84E36",
"X@	c #E74E36",
"Y@	c #DD5044",
"Z@	c #815D90",
"`@	c #4A64B3",
" #	c #4C64B2",
".#	c #4D64B2",
"+#	c #2E2130",
"@#	c #356B33",
"##	c #31943B",
"$#	c #198338",
"%#	c #21793B",
"&#	c #386A38",
"*#	c #4D262F",
"=#	c #4C2830",
"-#	c #C04333",
";#	c #DB4A34",
">#	c #D24C42",
",#	c #7C5B8B",
"'#	c #4A62AD",
")#	c #4C62AC",
"!#	c #4C62AE",
"~#	c #443A5F",
"{#	c #442531",
"]#	c #384C35",
"^#	c #1B703C",
"/#	c #245F36",
"(#	c #2D4D32",
"_#	c #6B4F32",
":#	c #CA4634",
"<#	c #C94634",
"[#	c #9C362D",
"}#	c #90322A",
"|#	c #8B3435",
"1#	c #60486D",
"2#	c #485187",
"3#	c #495186",
"4#	c #4A548E",
"5#	c #4D64B1",
"6#	c #4B66B5",
"7#	c #884360",
"8#	c #9B3432",
"9#	c #7F3732",
"0#	c #243D32",
"a#	c #2A3C32",
"b#	c #2B5235",
"c#	c #33212F",
"d#	c #773031",
"e#	c #EB4F36",
"f#	c #E94F36",
"g#	c #DA4A34",
"h#	c #90312A",
"i#	c #6D2727",
"j#	c #6E2727",
"k#	c #6D2728",
"l#	c #6B2A31",
"m#	c #544061",
"n#	c #484A77",
"o#	c #494E81",
"p#	c #4F63AF",
"q#	c #9D465F",
"r#	c #B33832",
"s#	c #933130",
"t#	c #27212F",
"u#	c #2E222F",
"v#	c #265637",
"w#	c #2D6735",
"x#	c #785233",
"y#	c #903832",
"z#	c #953831",
"A#	c #B53D2F",
"B#	c #B43D2F",
"C#	c #AA3A2E",
"D#	c #7F2C29",
"E#	c #662B31",
"F#	c #5E364C",
"G#	c #5B3952",
"H#	c #4E456B",
"I#	c #584D78",
"J#	c #955A7F",
"K#	c #9C5B7F",
"L#	c #AE4249",
"M#	c #B33831",
"N#	c #2E202F",
"O#	c #1E1D2F",
"P#	c #C14234",
"Q#	c #EC5036",
"R#	c #D04632",
"S#	c #672526",
"T#	c #6B2627",
"U#	c #6C2627",
"V#	c #6C2727",
"W#	c #6D2626",
"X#	c #613243",
"Y#	c #494873",
"Z#	c #454A78",
"`#	c #454A77",
" $	c #6F4B71",
".$	c #E14E37",
"+$	c #ED4F33",
"@$	c #C33F32",
"#$	c #21212F",
"$$	c #B23D32",
"%$	c #D94834",
"&$	c #C84232",
"*$	c #96342B",
"=$	c #97342B",
"-$	c #903B3E",
";$	c #824A60",
">$	c #804B64",
",$	c #904B5F",
"'$	c #D34837",
")$	c #DA4834",
"!$	c #BC3C32",
"~$	c #26212F",
"{$	c #973230",
"]$	c #B83A31",
"^$	c #E24C35",
"/$	c #E14D37",
"($	c #E04E3C",
"_$	c #E04F3C",
":$	c #DA4C3B",
"<$	c #BA3B32",
"[$	c #B43831",
"}$	c #C13E32",
"|$	c #E54D35",
"1$	c #E04C36",
"2$	c #DF4C37",
"3$	c #E14D36",
"4$	c #E64D36",
"5$	c #DF4B35",
"6$	c #AF3833",
"7$	c #AC3732",
"8$	c #8D3031",
"9$	c #27222F",
"0$	c #B63931",
"a$	c #C43F32",
"b$	c #BF3E32",
"c$	c #8A373B",
"d$	c #7E353C",
"e$	c #7D353C",
"f$	c #8E3839",
"g$	c #C23F32",
"h$	c #BA3D33",
"i$	c #6F2E3A",
"j$	c #6A2D3B",
"k$	c #592937",
"l$	c #2C222F",
"m$	c #AB3732",
"n$	c #5A2B3D",
"o$	c #41283F",
"p$	c #42293F",
"q$	c #5F2C3B",
"r$	c #B13731",
"s$	c #B23831",
"t$	c #A73633",
"u$	c #47293E",
"v$	c #41293F",
"w$	c #43293F",
"x$	c #44293F",
"y$	c #3C263A",
"z$	c #AF3732",
"A$	c #8A3237",
"B$	c #803038",
"C$	c #622C3C",
"D$	c #612D3B",
"E$	c #B13831",
"F$	c #B53931",
"G$	c #C74033",
"H$	c #D24434",
"I$	c #D14434",
"J$	c #B93B32",
"K$	c #AE3732",
"L$	c #833137",
"M$	c #572B3D",
"N$	c #45293F",
"O$	c #3D273A",
"P$	c #2D222F",
"Q$	c #7E3039",
"R$	c #602D3B",
"S$	c #EA4F36",
"T$	c #692D3B",
"U$	c #46293F",
"V$	c #B03831",
"W$	c #8C3237",
"X$	c #632C3C",
"Y$	c #6C2E3A",
"Z$	c #9D3534",
"`$	c #9E3534",
" %	c #D04433",
".%	c #DE4A35",
"+%	c #DD4A34",
"@%	c #BE3D32",
"#%	c #AD3732",
"$%	c #A63633",
"%%	c #903336",
"&%	c #552B3D",
"*%	c #562B3D",
"=%	c #B73A31",
"-%	c #BA3B31",
";%	c #2E262F",
">%	c #26282F",
",%	c #913330",
"'%	c #9A3435",
")%	c #4D2A3E",
"!%	c #49293F",
"~%	c #4B2A3F",
"{%	c #7C3038",
"]%	c #682C3B",
"^%	c #3D2639",
"/%	c #1B7535",
"(%	c #435331",
"_%	c #51262F",
":%	c #6E2B2F",
"<%	c #993435",
"[%	c #843137",
"}%	c #682E3B",
"|%	c #9B3434",
"1%	c #AA3732",
"2%	c #672E3A",
"3%	c #612D3C",
"4%	c #3E2635",
"5%	c #332433",
"6%	c #312331",
"7%	c #197C3E",
"8%	c #275135",
"9%	c #2E1E2F",
"0%	c #5F252F",
"a%	c #B53731",
"b%	c #B43731",
"c%	c #B43631",
"d%	c #B53631",
"e%	c #B43431",
"f%	c #842E37",
"g%	c #43273F",
"h%	c #45273F",
"i%	c #51273E",
"j%	c #953335",
"k%	c #B53831",
"l%	c #A93633",
"m%	c #4A293E",
"n%	c #362335",
"o%	c #2E1C2F",
"p%	c #2E1F2F",
"q%	c #206239",
"r%	c #255733",
"s%	c #43692F",
"t%	c #7D5D36",
"u%	c #7C5938",
"v%	c #7C5838",
"w%	c #7C5A37",
"x%	c #7B6D31",
"y%	c #7A6334",
"z%	c #7C5F35",
"A%	c #7B7B29",
"B%	c #5B6538",
"C%	c #33543F",
"D%	c #34543F",
"E%	c #34553E",
"F%	c #3B6637",
"G%	c #704237",
"H%	c #883137",
"I%	c #873237",
"J%	c #803039",
"K%	c #47293F",
"L%	c #45283F",
"M%	c #2F4737",
"N%	c #246530",
"O%	c #33722F",
"P%	c #3A6F34",
"Q%	c #275436",
"R%	c #1C9D31",
"S%	c #41AF35",
"T%	c #53B736",
"U%	c #40A237",
"V%	c #1E7D3C",
"W%	c #217B3C",
"X%	c #1F9134",
"Y%	c #3BA833",
"Z%	c #48A738",
"`%	c #207D3B",
" &	c #1E9432",
".&	c #20833A",
"+&	c #1F952E",
"@&	c #1FA926",
"#&	c #1E9332",
"$&	c #218339",
"%&	c #1E7B3D",
"&&	c #1A8739",
"*&	c #198D35",
"=&	c #1C7A3D",
"-&	c #20773C",
";&	c #3C453E",
">&	c #4A2A3E",
",&	c #492A3E",
"'&	c #27673D",
")&	c #1A7B3C",
"!&	c #207E3C",
"~&	c #218B37",
"{&	c #179830",
"]&	c #1B9335",
"^&	c #31A833",
"/&	c #4AB734",
"(&	c #43A838",
"_&	c #1E813D",
":&	c #31A334",
"<&	c #35AF31",
"[&	c #33A434",
"}&	c #197D3D",
"|&	c #188C37",
"1&	c #199A2D",
"2&	c #17B221",
"3&	c #159931",
"4&	c #17A229",
"5&	c #189A2E",
"6&	c #1E763E",
"7&	c #354D3E",
"8&	c #41473D",
"9&	c #42513C",
"0&	c #47523D",
"a&	c #414F3C",
"b&	c #404A3D",
"c&	c #40483D",
"d&	c #40443E",
"e&	c #403E3F",
"f&	c #40463E",
"g&	c #413B3F",
"h&	c #413C3F",
"i&	c #237A3C",
"j&	c #139532",
"k&	c #37A634",
"l&	c #389D38",
"m&	c #1A873A",
"n&	c #4DB037",
"o&	c #37B031",
"p&	c #17AF23",
"q&	c #1C9534",
"r&	c #33973A",
"s&	c #1EB121",
"t&	c #28BC1D",
"u&	c #2BA42F",
"v&	c #1B7F3D",
"w&	c #1C783C",
"x&	c #29AE23",
"y&	c #41AB30",
"z&	c #1EAB23",
"A&	c #189630",
"B&	c #198B37",
"C&	c #198B35",
"D&	c #199134",
"E&	c #198738",
"F&	c #1A8838",
"G&	c #1B8737",
"H&	c #197C3D",
"I&	c #159C30",
"J&	c #188C38",
"K&	c #198939",
"L&	c #1D873A",
"M&	c #44A938",
"N&	c #31A632",
"O&	c #199534",
"P&	c #23843C",
"Q&	c #1B813B",
"R&	c #19982D",
"S&	c #19A02B",
"T&	c #24873B",
"U&	c #50B836",
"V&	c #27B822",
"W&	c #3CBB28",
"X&	c #42AA36",
"Y&	c #1E853B",
"Z&	c #198539",
"`&	c #19A12D",
" *	c #19B220",
".*	c #18AA22",
"+*	c #1A9232",
"@*	c #1A8139",
"#*	c #17B41D",
"$*	c #15AA26",
"%*	c #19A729",
"&*	c #188839",
"**	c #178E36",
"=*	c #179234",
"-*	c #228A3A",
";*	c #2D913A",
">*	c #54BA36",
",*	c #53B936",
"'*	c #27A131",
")*	c #1A813C",
"!*	c #24863C",
"~*	c #51B935",
"{*	c #26AA2E",
"]*	c #3DB230",
"^*	c #43B433",
"/*	c #1AA02F",
"(*	c #1A863A",
"_*	c #1CA22D",
":*	c #19B020",
"<*	c #159E2E",
"[*	c #198A36",
"}*	c #19A627",
"|*	c #16A627",
"1*	c #15A32B",
"2*	c #18B11F",
"3*	c #16AC24",
"4*	c #18A828",
"5*	c #19813A",
"6*	c #1A833A",
"7*	c #198936",
"8*	c #2CA233",
"9*	c #51B736",
"0*	c #33943A",
"a*	c #199D30",
"b*	c #2E8D3C",
"c*	c #42AF34",
"d*	c #2DBA23",
"e*	c #1CA52D",
"f*	c #3CAF31",
"g*	c #43BB2D",
"h*	c #1CB41F",
"i*	c #1AA32D",
"j*	c #3AA935",
"k*	c #4BBA32",
"l*	c #3BB62E",
"m*	c #179E2E",
"n*	c #1A8539",
"o*	c #19AF20",
"p*	c #19992D",
"q*	c #19A828",
"r*	c #18AE23",
"s*	c #198A35",
"t*	c #1E8D39",
"u*	c #34983A",
"v*	c #25843D",
"w*	c #249836",
"x*	c #3BA835",
"y*	c #21843C",
"z*	c #2A9239",
"A*	c #3AA734",
"B*	c #1FB81D",
"C*	c #17A626",
"D*	c #2EA233",
"E*	c #33AC2E",
"F*	c #1AB91A",
"G*	c #1CAE23",
"H*	c #35A434",
"I*	c #51B637",
"J*	c #44B930",
"K*	c #1AA926",
"L*	c #1B833A",
"M*	c #36953C",
"N*	c #299436",
"O*	c #189930",
"P*	c #199A2F",
"Q*	c #1B9333",
"R*	c #39B72A",
"S*	c #208B37",
"T*	c #179334",
"U*	c #17A627",
"V*	c #2A9538",
"W*	c #289A36",
"X*	c #23A62E",
"Y*	c #32923B",
"Z*	c #139A30",
"`*	c #179332",
" =	c #18932F",
".=	c #18A129",
"+=	c #189530",
"@=	c #19A129",
"#=	c #18A229",
"$=	c #159133",
"%=	c #329A38",
"&=	c #34AD30",
"*=	c #1B8935",
"==	c #3AAE30",
"-=	c #39A834",
";=	c #35973B",
">=	c #30943A",
",=	c #1D8D38",
"'=	c #188739",
")=	c #1B9F30",
"!=	c #40A637",
"~=	c #399C39",
"{=	c #2A9438",
"]=	c #16A12A",
"^=	c #18B819",
"/=	c #187B3D",
"(=	c #3FB233",
"_=	c #24A62E",
":=	c #49B634",
"<=	c #32913C",
"[=	c #159B30",
"}=	c #19AC20",
"|=	c #1A8C38",
"1=	c #1C9432",
"2=	c #198935",
"3=	c #1BAA26",
"4=	c #3DBB2A",
"5=	c #55BD35",
"6=	c #4CB834",
"7=	c #23A42F",
"8=	c #20853C",
"9=	c #48AE37",
"0=	c #40A339",
"a=	c #189430",
"b=	c #18B71A",
"  . + @ # $ % & * @ & = - ; > , ' ) ! ~ { ] ^ + / ( _ + + : + < [ } | 1 2 3 4 5 ",
"6 . 7 _ 8 9 0 a b c d e f g h i j k l m n o / 7 + p * + q r / _ & s _ : t u v w ",
"x / y z A B C D E F G H I J K L M N O P Q R S T U V W X * Y [ Z X `  .* + ..+.P ",
"@.#.$.%.&.*.=.-.;.>.,.'.).!.~.{.p ].^./.(._.:.<.[.}.|.1.2.3.4.X 5.6.7.* X 8._ 9.",
"0.a.b.c.d.e.f.g.h.i.j.k.l.m.n.o.p.q.r.s.t.u.v.w.x.}.y.z.A.q B.C.W D.+ v.8 ` + v.",
"E.F.G.H.I.J.K.L.M.N.O.P.Q.R.S.T.U.V.R _ W.X.} Y.Z.`. +.+++@.@+#+v.* + $+c.[ 7 : ",
"%+&+*+=+t.-+;+>+,+'+)+!+~+{+]+^+/+(+|._+:+<+[+* !+}+|+1+2+3+4+5+6+6+7+8+9+0+a+b+",
"c+d+e+=+f+g+h+i+j+k+a++ _ l+m+n+o+p+q+r+s+Y.X + + t+u+v+w+x+y+z+w+w+A+B+C+e+z D+",
"E+F+Y G+H+I+J+K+0+L+~+0+Y M+N+O+P+Q+R+S+T+U+V+W+U+X+Y+Z+Z+Z+Z+Z+Z+Z+`+ @.@_ 5.@ ",
"+@@@` b+@ #@$@%@3.&@*@=@-@;@>@,@'@)@!@~@{@]@^@^@]@/@(@_@_@_@_@_@_@_@:@<@[@}@|@1@",
"+ 7 ` b+d.2@3@4@9.5@6@7@8@9@0@a@b@b@a@c@a@d@e@e@f@g@h@i@i@i@i@i@i@i@j@k@d@l@m@n@",
"+ + Z q o@p@q@r@s@t@u@v@w@x@y@z@z@z@z@z@A@B@C@D@E@F@G@H@H@H@H@H@H@H@i@I@J@K@L@..",
": Y.X + M@N@O@P@Q@P@R@S@T@U@V@W@X@X@X@X@Y@Z@`@ # #.#H@H@H@H@H@H@H@H@i@I@+#@###&@",
":  .$#%#&#*#=#=#=#=#=#=#=#z@-#;#;#;#;#;#>#,#'#)#)#)#)#)#)#)#)#)#!#H@i@~#{#]#^#9@",
"+ + /#(#_#:#<#<#<#<#<#<#<#-#[#}#}#}#}#}#|#1#2#3#3#3#3#3#3#3#3#3#4#5#6#7#8#9#0#a#",
"7 @.b#c#d#e#f#f#f#f#f#f#f#g#h#i#j#j#i#k#l#m#n#n#n#n#n#n#n#n#n#n#o#p#H@q#r#s#t#u#",
"v#w#x#y#z#A#B#B#B#B#B#B#B#C#D#j#j#j#E#F#G#H#n#n#n#n#n#n#n#n#n#n#I#J#K#L#M#s#t#u#",
"N#O#P#Q#R#S#T#T#T#T#T#T#T#T#U#V#V#W#X#Y#Z#Z#`#`#`#`#`#`#`#`#`#`# $.$+$@$M#s#t#u#",
"u##$$$%$&$*$=$=$=$=$=$=$=$=$=$=$=$=$-$;$>$>$>$>$>$>$>$>$>$>$>$>$,$'$)$!$M#s#t#u#",
"u#~${$]$@$^$^$^$^$^$^$^$^$^$^$^$^$^$/$($_$_$_$_$_$_$_$_$_$_$_$_$:$<$]$[$M#s#t#u#",
"u#t#s#M#}$X@|$1$2$2$2$3$4$4$4$4$4$4$4$4$4$4$4$4$4$4$4$4$4$4$4$4$5$6$7$7$7$8$9$u#",
"u#t#s#M#0$a$b$c$d$d$e$f$g$a$a$a$a$a$a$a$a$a$a$a$a$a$a$a$a$a$a$a$h$i$j$j$j$k$l$u#",
"u#t#s#M#M#M#m$n$o$p$p$q$r$s$s$s$s$s$s$s$s$s$s$s$s$s$s$s$s$s$s$s$t$u$v$w$x$y$u#u#",
"u#t#s#M#M#M#z$A$B$C$w$D$E$M#M#M#M#M#M#M#F$G$H$H$H$H$H$I$J$M#M#M#K$A$L$M$N$O$P$u#",
"u#t#s#M#M#M#M#s$K$Q$p$R$E$M#M#M#M#M#M#M#]$%$S$S$S$S$S$W@}$M#M#M#M#s$M#T$U$O$P$u#",
"u#t#s#M#M#M#M#M#V$W$X$Y$Z$`$`$`$t$M#M#M#0$ %.%.%.%.%.%+%@%M#M#M#M#M#[$T$U$O$P$u#",
"u#t#s#M#M#M#M#M#M##%$%%%M$&%&%*%L$[$M#M#M#=%-%-%-%-%-%-%F$M#M#M#M#M#[$T$U$O$P$u#",
";%>%,%E$E$M#M#M#M#M#[$'%)%!%!%~%{%s$E$E$E$s$M#M#M#M#M#M#M#M#M#M#M#E$s$]%N$^%P$u#",
"M@/%(%_%:%[$M#M#M#M#M##%'%<%<%<%[%R$D$D$}%|%[$M#M#M#M#M#M#M#M#M#1%2%3%4%5%6%u#u#",
"+ 7%8%9%0%a%b%b%b%b%b%c%d%a%d%e%f%g%h%h%i%j%k%[$[$[$[$[$[$[$[$[$l%m%x$n%9%o%d@p%",
"7 +@q%r%s%t%u%v%v%w%u%x%y%v%z%A%B%C%D%E%F%G%H%I%I%I%I%I%I%I%I%I%J%K%L%M%N%O%P%Q%",
"R%S%T%U%V%W%X%Y%Z%`% &.&+&@&#&$&%&&&*&=&-&;&m%>&>&>&>&>&>&>&>&>&,&N$h%'&)&!&~&{&",
"]&^&/&(&&@_&:&<&[&}&|&q 1&2&3&q w.4&5&* 6&7&8&9&0&a&b&c&d&e&f&e&g&g&h&i&@ X D+7.",
"* j&k&l&m&@+n&o&B.7 7 v.1&p&q&r&s&t&u&v&# w&-+x&y&z&A&B&C&D&I+E&F&G&H&I&p J&9.: ",
"* r K&h+8 L&M&N&O&P&P&Q&R&S&T&U&V&W&X&Y&I&Z&`& *o..*+*@*w.#*/.6 $*%*3.I&p &***: ",
"v.* : @ X =*-*@+;*>*,*'*=*)*!*~*{*]*^*/*  (*_*:*<*[*}*|*1*2*p.I&3*4*5*6.p : Z + ",
"9.p + + @ 6*: 7*8*9*0*a*8@b*c*d*e*f*g*h*i*j*k*l*m*/ n*c.o.o*M X p*q*}.r*s*:+p*& ",
"`  .0+/ t*u*v*y w*x*y* .z z*A*B*C*D*E*F*G*H*I*J*K*L*M*N*=*O*~++ p.P*Q*R*S*T*U*q.",
"@ Y V*W*X*/&Y*7 0+Z*X + !+`* =.=+=y s*@=#=$=%=&=, *===-=;=>=,=[+X '=)=!=~={=]=^=",
"+ /=3 (=_=:=<=+ C.[=X + + R.}=&&: v.: & X | |=1=[.2=3=4=5=6=7=6 z &*I+8=9=0=a=b="};
