/* XPM */
static char *fd5bd54d3cae4351c0d353aa167c6f49PnZfsUyLGRw4RZNH[] = {
/* columns rows colors chars-per-pixel */
"40 50 93 2 ",
"   c None",
".  c black",
"X  c #010000",
"o  c #010101",
"O  c #020202",
"+  c #030202",
"@  c gray1",
"#  c #040404",
"$  c #050504",
"%  c gray2",
"&  c #060606",
"*  c #070707",
"=  c #080807",
"-  c #090907",
";  c gray3",
":  c #090909",
">  c #0A0909",
",  c #0A0A09",
"<  c gray4",
"1  c #0B0B0A",
"2  c #0B0B0B",
"3  c #0C0C0C",
"4  c #0D0C0C",
"5  c #0D0D0C",
"6  c gray5",
"7  c #0E0E0D",
"8  c #0E0E0E",
"9  c #0F0F0E",
"0  c gray6",
"q  c #160C01",
"w  c #10100F",
"e  c #1B160D",
"r  c #101010",
"t  c #111111",
"y  c gray7",
"u  c #131312",
"i  c #151514",
"p  c #161514",
"a  c #161615",
"s  c #181716",
"d  c #181816",
"f  c #1B1A19",
"g  c #1C1C1B",
"h  c #1D1C1B",
"j  c #1D1D1B",
"k  c #1F1E1D",
"l  c #1F1F1D",
"z  c #331E00",
"x  c #201F1D",
"c  c #22211F",
"v  c #372E1F",
"b  c #392F1F",
"n  c #3C301F",
"m  c #222120",
"M  c #222220",
"N  c #242322",
"B  c #252422",
"V  c #272624",
"C  c #312B22",
"Z  c #3D2C2C",
"A  c #3B3020",
"S  c #472900",
"D  c #4D2E00",
"F  c #523100",
"G  c #553200",
"H  c #543201",
"J  c #573400",
"K  c #573504",
"L  c #583400",
"P  c #5A3600",
"I  c #5F3902",
"U  c #563C17",
"Y  c #5B3F17",
"T  c #663C00",
"R  c #663D00",
"E  c #533233",
"W  c #543234",
"Q  c #7B4900",
"!  c #764B0E",
"~  c #644517",
"^  c #80510E",
"/  c #8E590E",
"(  c #915701",
")  c #A46100",
"_  c #A56200",
"`  c #A96500",
"'  c #AE6700",
"]  c #B46A00",
"[  c #B46B00",
"{  c #B86D00",
"}  c #CC7900",
"|  c #803E43",
" . c #D95763",
/* pixels */
"                                                                                ",
"                                                            o o                 ",
"                                                            o o o               ",
"                                                      o o o o                   ",
"                                                    ; ; o o o                   ",
"                                                  y y y # o                     ",
"                                                y # # # 8 8                     ",
"                                              8 8 o o o 8 8                     ",
"                                              o # o o o o o                     ",
"                                            y # o o o o o # y                   ",
"                                            y ; o o o o o # y                   ",
"                                        _ ( ; # o o o o o o o Q _               ",
"                                      o S G K I T F L T G L T J D o             ",
"                                      o o q _ { } _ ] } ` ' } z o o             ",
"                            y y y y y y y y y y y y y y y y y y y y y y y y y   ",
"                            8 8 ; ; ; ; ; ; ; 8 8 8 8 ; ; ; ; ; ; ; ; ; ; ; ;   ",
"    o                       # # o o o o o o o o o o o o o o o o o o o o o o o   ",
"o 8 m # o                         o o o o o o o o o o o o o o o o o o o         ",
"o 8 V # o                         o o ; ; ; ; ; ; ; ; ; ; ; ; ; ; ; # o         ",
"o 8 V # o                         o ; V V V V V V V V V V V V V V V 8 o         ",
"o 8 V # o                       o a k V V V V V V V V V V V V V V V 8 o         ",
"o 8 V # o                       o h V V V V V V V A C V V V V V V A e #         ",
"o 8 V # o                       o h V V V V V V V } / V V V V V n } ~ V o o     ",
"o 8 V # o                       o h V V V V V V V ] ^ V V V V V b ] Y V o o     ",
"o 8 V # o                       o h V V V V V V V _ ! V V V V V v _ U V o o     ",
"o 8 V # o                       o o o o o # V V V V V V V E  .W V V V V o o     ",
"o 8 V a w o                     o o # y y a V V V V V V V Z | Z V V V V o o     ",
"o 8 V V h o                       o ; V V V V V V V V V V V V V V V V V o o     ",
"o 8 V V V m # o o o o o o o o o o h s # # # # a V V V V V V V V V V y #         ",
"o 8 V V V V a 8 8 8 8 8 8 8 8 8 8 x c 8 o o 8 f V V V V V V V V N d 8 o         ",
"o 8 V V V V V V V V V V V V V V V V V V ; # V V V V V V V V V V c o             ",
"  ; ; m V V V V V V V V V V V V V V V V x h ; ; ; ; ; ; ; ; ; ; =               ",
"    o m V V V V V V V V V V V V V V V V V c ; ; ; ; ; ; ; ; ; o o               ",
"    o m V V V V V V V V V V V V V V V V V V V V V V V V V V V                   ",
"      8 8 8 m V V V V V V V V V V V V V V V V V V V V V V k 8                   ",
"      o o o h V V V V V V V V V V V V V V V V V V V V V V h o                   ",
"          o h V V V V V V V V V V V V V V V V V V V V V V h o                   ",
"          o h V V V V V V V V V V V V V V V V V V V V V V h o                   ",
"          o h V V V V V V V V V V V V V V V V V V V V V V h o                   ",
"          o h V V V V V V V V V V V V V V V V V V V V V # o                     ",
"          o h V V V V V V V V V V V V V V V V V V V V V # o                     ",
"          o h V V V V V V V V V V V V V V V V V V V V V # o                     ",
"          o h V V V V V V V V V V V V V V V V V V V V V # o                     ",
"          o h V V m h h m V V B h h x V V V h h h V V V # o                     ",
"          o h V V 8 o o y V V s o o ; V V c o o o V V V # o                     ",
"            ; ; ; o o   ; ; ; # o     ; ; = o o   ; ; ;                         ",
"            o o o o o     o o o o     o o o o     o o o                         ",
"                                                                                ",
"                                                                                ",
"                                                                                "
};
