/* XPM */
static char *_10310cb7c884716ee04da69dccc677dBAhEMlSrRmykiNuh[] = {
/* columns rows colors chars-per-pixel */
"20 20 169 2 ",
"   c #010101",
".  c #040404",
"X  c #0B0B0B",
"o  c gray5",
"O  c #08110A",
"+  c #07190D",
"@  c #131312",
"#  c #161514",
"$  c #121813",
"%  c #161D13",
"&  c #151A16",
"*  c #181817",
"=  c #171D18",
"-  c #1A1A19",
";  c #1D1C1B",
":  c #1F1E1D",
">  c #062C07",
",  c #05230E",
"<  c #0D210C",
"1  c #0E360F",
"2  c #0C2415",
"3  c #0F2A17",
"4  c #0A2E17",
"5  c #0C2F16",
"6  c #102913",
"7  c #1B2B10",
"8  c #182E14",
"9  c #102818",
"0  c #083C11",
"q  c #0D3719",
"w  c #143412",
"e  c #22211F",
"r  c #342A1B",
"t  c #0E3E20",
"y  c #222220",
"u  c #242322",
"i  c #252422",
"p  c #272624",
"a  c #2E2A22",
"s  c #392F20",
"d  c #543201",
"f  c #5E3800",
"g  c #47351B",
"h  c #482F30",
"j  c #5E3538",
"k  c #0C441C",
"l  c #0B4E18",
"z  c #1B4C17",
"x  c #135317",
"c  c #135119",
"v  c #15551E",
"b  c #0E6F13",
"n  c #19681F",
"m  c #114722",
"M  c #0F5522",
"N  c #0E5822",
"B  c #105024",
"V  c #12572A",
"C  c #145C2E",
"Z  c #294C21",
"A  c #265822",
"S  c #205E24",
"D  c #12652A",
"F  c #116928",
"G  c #196A2E",
"H  c #137E2E",
"J  c #146531",
"K  c #166A36",
"L  c #197732",
"P  c #167E35",
"I  c #1D7B32",
"U  c #1D7F30",
"Y  c #1A7A3E",
"T  c #197C3D",
"R  c #1E7E3D",
"E  c #286723",
"W  c #306422",
"Q  c #2B7736",
"!  c #6E4100",
"~  c #714300",
"^  c #754601",
"/  c #7D4A00",
"(  c #7F5210",
")  c #219C1F",
"_  c #17B21E",
"`  c #16882F",
"'  c #18902A",
"]  c #19952F",
"[  c #199A2B",
"{  c #18992C",
"}  c #168134",
"|  c #1C8234",
" . c #168F35",
".. c #198F32",
"X. c #198A34",
"o. c #188E35",
"O. c #178539",
"+. c #18833A",
"@. c #1D833B",
"#. c #198438",
"$. c #1D8638",
"%. c #1D813D",
"&. c #1C8B39",
"*. c #179332",
"=. c #169433",
"-. c #169134",
";. c #189231",
":. c #1D9032",
">. c #1B9432",
",. c #1B9135",
"<. c #1B9435",
"1. c #1F9436",
"2. c #1D9F31",
"3. c #268026",
"4. c #239727",
"5. c #299D23",
"6. c #209D2A",
"7. c #219B2E",
"8. c #209E2E",
"9. c #31962E",
"0. c #21873B",
"q. c #21833D",
"w. c #26873D",
"e. c #218A3A",
"r. c #218C39",
"t. c #219333",
"y. c #209235",
"u. c #209434",
"i. c #249435",
"p. c #239B35",
"a. c #2F9E37",
"s. c #299139",
"d. c #2D9339",
"f. c #289538",
"g. c #2C9539",
"h. c #389635",
"j. c #32953A",
"k. c #319938",
"l. c #35993A",
"z. c #399D39",
"x. c #17A426",
"c. c #18A724",
"v. c #17A923",
"b. c #16AD23",
"n. c #17AB24",
"m. c #18AA21",
"M. c #1CB021",
"N. c #25A82A",
"B. c #23B523",
"V. c #27B524",
"C. c #33B32D",
"Z. c #35B12C",
"A. c #3CBC2A",
"S. c #27A331",
"D. c #30A035",
"F. c #34A336",
"G. c #33A734",
"H. c #37A935",
"J. c #38A833",
"K. c #38AD30",
"L. c #3CA935",
"P. c #3DA139",
"I. c #36B031",
"U. c #42AC2F",
"Y. c #40BA2E",
"T. c #41A837",
"R. c #41A638",
"E. c #40B332",
"W. c #48B833",
/* pixels */
"-.T ] ..T ;.,.N.t.K.a.+.O.V t + C O.P.7.",
"@. .g.B.G._ J.C.&.,.[ ' v o + H  .#.%.o.",
"z.y.X.E.Y.=.o.b.[ ;.v.m .   2 #.#.Y -.Y ",
"T.#.n.u.M.T X.A.V.2.W O     . Z Q l.e.-.",
"s.*.o.] +.+.&.D.g.z d ^ ~ / ! f 7 h.0.T ",
"C } [ o.+.W.G o X X X o o o X X X X X A ",
"$ 2 $.<.R S.| 3.w . . . . . . . .   F K ",
"* . z.l.w.;.m.D 8 i p p p p p p p . O.Y ",
"* . j.H.e.X.i.l * p p p ( s p p ( r 0 r.",
"* . #.-.R.S.d.k X o # p g a h j g a , T.",
"* p < B E S n N 3 * * : p p p p p - k -.",
"= p u ; ; ; ; ; i ; . ; y y y y & M  .+.",
"4 y p p p p p p p p e @ @ @ @ 9 J +.T  .",
"P 5 o p p p p p p p p p p p ; x >.X.#.#.",
"T +.X p p p p p p p p p p p ; c 0. .k.Y ",
"r.d.X p p p p p p p p p p p , *.+.+.1.f.",
"y.L.X p i y p i y p i y i p , =.X. .#. .",
"+.+.q @ . z @ X 1 % o > 6 @ b =.m. .+.+.",
"X.T e.L 9.&.U 5.6.) 4.U.` I x.T { 8.:.;.",
"T F.I.q.-.Y #.[ #.X.;.i.[ Z.R.-.+.p.l.c."
};
