/* XPM */
static char * cat_xpm[] = {
"40 40 583 2",
"  	c #159D2F",
". 	c #188639",
"+ 	c #1A7A3E",
"@ 	c #1A7B3E",
"# 	c #19853A",
"$ 	c #19A823",
"% 	c #1A9034",
"& 	c #1A7E3C",
"* 	c #1A7C3D",
"= 	c #1A7F3C",
"- 	c #1A803B",
"; 	c #188E36",
"> 	c #199434",
", 	c #1F8938",
"' 	c #19B31F",
") 	c #1A8A35",
"! 	c #1B9A31",
"~ 	c #35BC25",
"{ 	c #52BC34",
"] 	c #51BA35",
"^ 	c #2AA731",
"/ 	c #178B38",
"( 	c #197F3C",
"_ 	c #159633",
": 	c #18853A",
"< 	c #169832",
"[ 	c #178C36",
"} 	c #18873A",
"| 	c #159732",
"1 	c #1C813C",
"2 	c #46AB38",
"3 	c #41A339",
"4 	c #1C9432",
"5 	c #19B21E",
"6 	c #149E2F",
"7 	c #19843B",
"8 	c #179534",
"9 	c #199132",
"0 	c #19A229",
"a 	c #179F2D",
"b 	c #168E36",
"c 	c #18813A",
"d 	c #199F2A",
"e 	c #19A724",
"f 	c #17982E",
"g 	c #2C9239",
"h 	c #3EAD33",
"i 	c #20B71E",
"j 	c #1B8B35",
"k 	c #339E36",
"l 	c #3EAF32",
"m 	c #30933A",
"n 	c #2D8F3B",
"o 	c #1F893A",
"p 	c #19803C",
"q 	c #1A793E",
"r 	c #19833A",
"s 	c #197D3D",
"t 	c #19833B",
"u 	c #179035",
"v 	c #197E3D",
"w 	c #19843A",
"x 	c #1A803D",
"y 	c #1A7F3D",
"z 	c #18853B",
"A 	c #1B7D3E",
"B 	c #2A8C3C",
"C 	c #3C9F3A",
"D 	c #38A135",
"E 	c #1D8F34",
"F 	c #19813C",
"G 	c #156532",
"H 	c #0C5722",
"I 	c #09631B",
"J 	c #0C5321",
"K 	c #0C6D14",
"L 	c #0A7114",
"M 	c #24A030",
"N 	c #3CA834",
"O 	c #17AF23",
"P 	c #2BA62F",
"Q 	c #4CAF38",
"R 	c #4FBD33",
"S 	c #24AE28",
"T 	c #1A8639",
"U 	c #2D8B3D",
"V 	c #319838",
"W 	c #199036",
"X 	c #189C2E",
"Y 	c #198439",
"Z 	c #1A8F35",
"` 	c #199F2C",
" .	c #199B2F",
"..	c #197F3B",
"+.	c #188A38",
"@.	c #178D37",
"#.	c #178F36",
"$.	c #197C3C",
"%.	c #0D4E26",
"&.	c #0D4C25",
"*.	c #2A7A31",
"=.	c #319938",
"-.	c #1A9036",
";.	c #1C7D3E",
">.	c #2A8D3C",
",.	c #1F6727",
"'.	c #021103",
").	c #000000",
"!.	c #011A03",
"~.	c #2DA72F",
"{.	c #4EBD32",
"].	c #25B424",
"^.	c #15A42C",
"/.	c #2CA433",
"(.	c #44B034",
"_.	c #3EB92D",
":.	c #1DA42E",
"<.	c #1A8539",
"[.	c #189631",
"}.	c #159F2E",
"|.	c #18B41D",
"1.	c #198D34",
"2.	c #199232",
"3.	c #19AA22",
"4.	c #18B21F",
"5.	c #1A8538",
"6.	c #169534",
"7.	c #189830",
"8.	c #198A35",
"9.	c #19813B",
"0.	c #159A31",
"a.	c #011105",
"b.	c #010C03",
"c.	c #12562A",
"d.	c #19853B",
"e.	c #169134",
"f.	c #29883C",
"g.	c #45AA38",
"h.	c #358024",
"i.	c #021203",
"j.	c #030302",
"k.	c #050404",
"l.	c #061C07",
"m.	c #2A9C2C",
"n.	c #4AAF30",
"o.	c #219D2D",
"p.	c #149E2E",
"q.	c #188F36",
"r.	c #1C9334",
"s.	c #19B41C",
"t.	c #15A32C",
"u.	c #198B37",
"v.	c #199A30",
"w.	c #17AA26",
"x.	c #159E2F",
"y.	c #18B51D",
"z.	c #199032",
"A.	c #18AF22",
"B.	c #17AE23",
"C.	c #18A726",
"D.	c #187A39",
"E.	c #13902D",
"F.	c #177737",
"G.	c #061308",
"H.	c #011103",
"I.	c #115829",
"J.	c #4DB337",
"K.	c #32953B",
"L.	c #165B29",
"M.	c #010D04",
"N.	c #020202",
"O.	c #151413",
"P.	c #1F1E1C",
"Q.	c #1E1E1C",
"R.	c #0B2F0A",
"S.	c #132F0B",
"T.	c #104B21",
"U.	c #14952F",
"V.	c #199234",
"W.	c #18B51C",
"X.	c #19A62C",
"Y.	c #19AD21",
"Z.	c #19A02A",
"`.	c #19823A",
" +	c #15A42A",
".+	c #178A38",
"++	c #198838",
"@+	c #169A30",
"#+	c #18A827",
"$+	c #16AC25",
"%+	c #14932F",
"&+	c #0E4423",
"*+	c #05220C",
"=+	c #072110",
"-+	c #011003",
";+	c #1A7C3E",
">+	c #55BC36",
",+	c #2F913C",
"'+	c #10532B",
")+	c #020C04",
"!+	c #1B1A19",
"~+	c #282724",
"{+	c #262524",
"]+	c #020001",
"^+	c #0A3A1D",
"/+	c #177F38",
"(+	c #199334",
"_+	c #1FB91C",
":+	c #45B930",
"<+	c #24BA1F",
"[+	c #17AB26",
"}+	c #169634",
"|+	c #199035",
"1+	c #169C30",
"2+	c #178E37",
"3+	c #1A813B",
"4+	c #19AC25",
"5+	c #187D38",
"6+	c #010E04",
"7+	c #11552B",
"8+	c #169434",
"9+	c #54BD35",
"0+	c #2D9F35",
"a+	c #0E6125",
"b+	c #272624",
"c+	c #262523",
"d+	c #100F0E",
"e+	c #0E0D0D",
"f+	c #0E2C18",
"g+	c #115129",
"h+	c #166A23",
"i+	c #218117",
"j+	c #398622",
"k+	c #27831A",
"l+	c #177A1B",
"m+	c #117120",
"n+	c #1A7421",
"o+	c #12572A",
"p+	c #106226",
"q+	c #105D28",
"r+	c #12552B",
"s+	c #12542B",
"t+	c #116E1F",
"u+	c #116423",
"v+	c #0F6126",
"w+	c #48AE37",
"x+	c #279F34",
"y+	c #0E6823",
"z+	c #010F03",
"A+	c #1A1B19",
"B+	c #030904",
"C+	c #010902",
"D+	c #010D01",
"E+	c #021101",
"F+	c #041201",
"G+	c #021201",
"H+	c #011001",
"I+	c #010E01",
"J+	c #010F01",
"K+	c #010802",
"L+	c #010A02",
"M+	c #010C01",
"N+	c #010C04",
"O+	c #0F6724",
"P+	c #188C38",
"Q+	c #18793E",
"R+	c #1A7A3F",
"S+	c #1A1A18",
"T+	c #010101",
"U+	c #115929",
"V+	c #1F843C",
"W+	c #27873C",
"X+	c #232220",
"Y+	c #1E1D1B",
"Z+	c #1C1B1A",
"`+	c #0B0B0A",
" @	c #1D1C1B",
".@	c #131312",
"+@	c #0B0B0B",
"@@	c #0B6723",
"#@	c #2EA533",
"$@	c #4DB436",
"%@	c #11562A",
"&@	c #252422",
"*@	c #11100F",
"=@	c #111110",
"-@	c #358223",
";@	c #42A937",
">@	c #2D8C3C",
",@	c #1A7B3D",
"'@	c #188839",
")@	c #106126",
"!@	c #011203",
"~@	c #277126",
"{@	c #32943B",
"]@	c #1D7D3E",
"^@	c #178F37",
"/@	c #10572A",
"(@	c #1A7D3E",
"_@	c #1B1A18",
":@	c #262624",
"<@	c #252524",
"[@	c #232322",
"}@	c #0F0F0F",
"|@	c #0F1010",
"1@	c #1A7B3F",
"2@	c #10411F",
"3@	c #0E160F",
"4@	c #10100F",
"5@	c #42331F",
"6@	c #614219",
"7@	c #604117",
"8@	c #372611",
"9@	c #0C0D0D",
"0@	c #604118",
"a@	c #1E1D1C",
"b@	c #104020",
"c@	c #000702",
"d@	c #111411",
"e@	c #222424",
"f@	c #724919",
"g@	c #C27303",
"h@	c #724918",
"i@	c #212424",
"j@	c #111310",
"k@	c #734A19",
"l@	c #C47502",
"m@	c #232524",
"n@	c #684418",
"o@	c #AE6802",
"p@	c #684419",
"q@	c #242524",
"r@	c #604018",
"s@	c #9F5F02",
"t@	c #603F19",
"u@	c #5C3E19",
"v@	c #965A06",
"w@	c #5C3D1A",
"x@	c #352C21",
"y@	c #44341D",
"z@	c #252624",
"A@	c #252623",
"B@	c #2B2725",
"C@	c #683639",
"D@	c #69373A",
"E@	c #392928",
"F@	c #D45561",
"G@	c #D75662",
"H@	c #3A2928",
"I@	c #D85662",
"J@	c #DB5864",
"K@	c #DA5763",
"L@	c #D95763",
"M@	c #2F2725",
"N@	c #8D3D43",
"O@	c #8E3E44",
"P@	c #A6474F",
"Q@	c #1E2522",
"R@	c #793A3F",
"S@	c #D05460",
"T@	c #031B0A",
"U@	c #021B0A",
"V@	c #111B13",
"W@	c #222220",
"X@	c #242322",
"Y@	c #222523",
"Z@	c #73393D",
"`@	c #C4515B",
" #	c #121D12",
".#	c #146131",
"+#	c #156232",
"@#	c #114524",
"##	c #0A110B",
"$#	c #3B2B2B",
"%#	c #523133",
"&#	c #0D170B",
"*#	c #1E5522",
"=#	c #1E6D31",
"-#	c #156231",
";#	c #197A3F",
">#	c #0F542B",
",#	c #010903",
"'#	c #020102",
")#	c #282624",
"!#	c #021302",
"~#	c #347F24",
"{#	c #3EA23A",
"]#	c #1E7E3E",
"^#	c #1C9D32",
"/#	c #41AF35",
"(#	c #42932A",
"_#	c #1E4B17",
":#	c #0B2E17",
"<#	c #142318",
"[#	c #1A1A19",
"}#	c #201F1E",
"|#	c #201F1D",
"1#	c #1B1B19",
"2#	c #142717",
"3#	c #0A3016",
"4#	c #0A3519",
"5#	c #1E6930",
"6#	c #238F38",
"7#	c #169932",
"8#	c #1A9135",
"9#	c #30A733",
"0#	c #4CB933",
"a#	c #43A737",
"b#	c #1B743A",
"c#	c #0B3A1D",
"d#	c #010000",
"e#	c #111111",
"f#	c #030303",
"g#	c #094518",
"h#	c #168433",
"i#	c #18843A",
"j#	c #178D36",
"k#	c #178E36",
"l#	c #1A7D3D",
"m#	c #139433",
"n#	c #37A833",
"o#	c #389E38",
"p#	c #198136",
"q#	c #0A3A1B",
"r#	c #110B0F",
"s#	c #252423",
"t#	c #252523",
"u#	c #11060F",
"v#	c #094019",
"w#	c #13972D",
"x#	c #169334",
"y#	c #188C37",
"z#	c #198639",
"A#	c #159431",
"B#	c #177530",
"C#	c #32852B",
"D#	c #248328",
"E#	c #137429",
"F#	c #1E6F2F",
"G#	c #184E22",
"H#	c #151914",
"I#	c #141312",
"J#	c #070606",
"K#	c #151513",
"L#	c #070706",
"M#	c #141D13",
"N#	c #0F6215",
"O#	c #0F8123",
"P#	c #0E8024",
"Q#	c #0F8B1B",
"R#	c #11871F",
"S#	c #146D32",
"T#	c #14992F",
"U#	c #169533",
"V#	c #228B3A",
"W#	c #1E823C",
"X#	c #2D903B",
"Y#	c #54BB37",
"Z#	c #398125",
"`#	c #061603",
" $	c #011801",
".$	c #10721A",
"+$	c #198C37",
"@$	c #159B31",
"#$	c #18A829",
"$$	c #159B30",
"%$	c #1A7E3D",
"&$	c #1A823B",
"*$	c #1A8937",
"=$	c #2DA333",
"-$	c #51B837",
";$	c #287229",
">$	c #04280B",
",$	c #022108",
"'$	c #062209",
")$	c #0C2C07",
"!$	c #042D03",
"~$	c #022805",
"{$	c #082907",
"]$	c #0A2C05",
"^$	c #032D03",
"/$	c #032806",
"($	c #0A2B07",
"_$	c #112F08",
":$	c #0B2D07",
"<$	c #022606",
"[$	c #031D0A",
"}$	c #041E0A",
"|$	c #032208",
"1$	c #032F07",
"2$	c #11751B",
"3$	c #1A8838",
"4$	c #189C2C",
"5$	c #18A729",
"6$	c #19AD24",
"7$	c #1A8A36",
"8$	c #199233",
"9$	c #199B2C",
"0$	c #179036",
"a$	c #18823B",
"b$	c #1E8F38",
"c$	c #34983A",
"d$	c #26843D",
"e$	c #188739",
"f$	c #259A35",
"g$	c #3BAA34",
"h$	c #1F7B36",
"i$	c #136A2E",
"j$	c #12712B",
"k$	c #1B762B",
"l$	c #24782B",
"m$	c #169118",
"n$	c #118322",
"o$	c #1D7A29",
"p$	c #218025",
"q$	c #149314",
"r$	c #148D1B",
"s$	c #217B28",
"t$	c #3B8A2C",
"u$	c #359524",
"v$	c #148A1E",
"w$	c #176A2E",
"x$	c #33812E",
"y$	c #26792D",
"z$	c #126E2C",
"A$	c #16852E",
"B$	c #198B36",
"C$	c #189A2F",
"D$	c #1D9434",
"E$	c #39B72A",
"F$	c #208A38",
"G$	c #179434",
"H$	c #17A826",
"I$	c #189B30",
"J$	c #178B37",
"K$	c #2A9638",
"L$	c #299A36",
"M$	c #23A52F",
"N$	c #49B734",
"O$	c #32913B",
"P$	c #139931",
"Q$	c #18863A",
"R$	c #179433",
"S$	c #199430",
"T$	c #19A129",
"U$	c #189632",
"V$	c #1A8B36",
"W$	c #179033",
"X$	c #339A39",
"Y$	c #35AE2E",
"Z$	c #1AB41F",
"`$	c #1D8937",
" %	c #3AAF30",
".%	c #39A933",
"+%	c #36983B",
"@%	c #30943B",
"#%	c #1D8B39",
"$%	c #188838",
"%%	c #19823B",
"&%	c #1A9F30",
"*%	c #40A637",
"=%	c #399C39",
"-%	c #2A9538",
";%	c #16A22A",
">%	c #18B919",
",%	c #187A3D",
"'%	c #3FB233",
")%	c #49B634",
"!%	c #32913C",
"~%	c #19AC20",
"{%	c #1A8D37",
"]%	c #1C9331",
"^%	c #1A8836",
"/%	c #1BAA26",
"(%	c #3CBB29",
"_%	c #55BD35",
":%	c #4CB834",
"<%	c #23A330",
"[%	c #149D2F",
"}%	c #20853C",
"|%	c #40A239",
"1%	c #179431",
"2%	c #18B71B",
"  . + @ # $ % & * @ = - ; > , ' ) ! ~ { ] ^ / @ ( _ : + @ * + < [ } | 1 2 3 4 5 ",
"6 . + 7 8 9 0 a b c d e f g h i j k l m n o p q + r s + t u v w x y z A B C D E ",
"/ F G H I J K L M N i O P Q R S T U V W X Y Z `  ...+.t ( @.#.$.%.&.&.&.%.*.=.-.",
";.>.,.'.).).).!.~.{.].^./.(._.:.w <.[.}.|.1.2.3.4.5.6.7.8.9.0...a.).).).b.c.d.e.",
"f.g.h.i.).j.k.l.m.n.o.p.q.r.s.t.u.v.w.x.y.2.* z.A.5.< B.C.D.E.F.G.k.j.).H.I.@ @ ",
"J.K.L.M.N.O.P.Q.R.S.T.U.[ V.W.X.Y.Z.`.w 4. +.+++@+Y #+$+%+&+*+=+Q.P.O.N.-+I.;+* ",
">+,+'+)+N.!+~+{+]+).^+/+p (+_+:+<+[+6.}+|+1+2+y 7 3+4+a 5+^+).]+{+~+!+N.6+7+# 8+",
"9+0+a+M.N.!+b+c+d+e+f+g+I.h+i+j+k+l+m+n+o+p+q+r+s+o+t+u+g+f+e+d+c+b+!+N.M.v+#.@.",
"w+x+y+z+N.!+b+b+{+b+A+B+C+D+E+F+G+H+I+J+K+L+C+K+K+K+M+L+B+A+b+{+b+b+!+N.N+O+P+* ",
"Q+R+I.H.N.!+b+b+b+b+S+T+).).).).).).).).).).).).).).).).T+S+b+b+b+b+!+N.M.U+V+W+",
"+ @ I.H.N.!+b+b+b+b+X+Y+Z+`+).T+ @Y+.@T+T+.@Y+ @T+).+@Z+Y+X+b+b+b+b+!+N.N+@@#@$@",
"+ @ %@M.N.!+b+b+b+b+b+b+&@*@).N.c+b+!+N.N.!+b+c+N.).=@&@b+b+b+b+b+b+!+N.i.-@;@>@",
",@'@)@M.N.!+b+b+b+b+b+b+&@*@).N.c+b+!+N.N.!+b+c+N.).=@&@b+b+b+b+b+b+!+N.!@~@{@]@",
"* ^@O+M.N.!+b+b+b+b+b+b+&@*@).N.c+b+!+N.N.!+b+c+N.).=@&@b+b+b+b+b+b+!+N.-+/@R++ ",
"@ (@U+-+N._@b+b+b+b+:@<@[@}@).N.c+b+!+N.N.!+b+c+N.).|@[@<@:@b+b+b+b+_@N.M.%@1@@ ",
"s+r+2@3@4@Q.b+b+b+:@5@6@7@8@9@d+c+b+!+N.N.!+b+c+d+9@8@0@6@5@:@b+b+b+a@4@3@b@r+s+",
"K+c@d@&@{+b+b+b+b+e@f@g@g@h@i@{+b+b+!+N.N.!+b+b+{+i@h@g@g@f@e@b+b+b+b+{+&@j@c@K+",
").).=@&@b+b+b+b+b+e@k@l@l@k@e@b+b+b+S+T+T+S+b+b+b+e@k@l@l@k@e@b+b+b+b+b+&@*@).).",
").).=@&@b+b+b+b+b+m@n@o@o@p@m@b+b+b+X+Y+Y+X+b+b+b+m@n@o@o@p@m@b+b+b+b+b+&@*@).).",
").).=@&@b+b+b+b+b+q@r@s@s@t@q@b+b+b+b+b+b+b+b+b+b+q@r@s@s@t@q@b+b+b+b+b+&@*@).).",
").).=@&@b+b+b+b+b+q@u@v@v@w@q@b+b+b+b+b+b+b+b+b+b+q@u@v@v@w@q@b+b+b+b+b+&@*@).).",
").).=@&@b+b+b+b+b+b+x@y@y@x@b+b+b+b+b+b+b+b+b+b+b+b+x@y@y@x@b+b+b+b+b+b+&@*@).).",
").).=@&@b+b+b+b+b+b+:@{+{+:@b+b+z@A@A@A@A@A@A@z@b+b+:@{+{+:@b+b+b+b+b+b+&@*@).).",
").).=@&@b+b+b+b+b+b+b+b+b+b+b+B@C@D@D@D@D@D@D@C@B@b+b+b+b+b+b+b+b+b+b+b+&@*@).).",
").).=@&@b+b+b+b+b+b+b+b+b+b+b+E@F@G@G@G@G@G@G@F@E@b+b+b+b+b+b+b+b+b+b+b+&@*@).).",
").).=@&@b+b+b+b+b+b+b+b+b+b+b+H@I@J@K@L@L@K@J@I@H@b+b+b+b+b+b+b+b+b+b+b+&@*@).).",
").).=@&@b+b+b+b+b+b+b+b+b+b+b+M@N@O@P@F@F@P@O@N@M@b+b+b+b+b+b+b+b+b+b+b+&@*@).).",
").).=@&@b+b+b+b+b+b+b+b+b+b+b+b+z@Q@R@S@S@R@Q@z@b+b+b+b+b+b+b+b+b+b+b+b+&@*@).).",
"T@U@V@W@X@c+b+b+b+b+b+b+b+b+b+b+b+Y@Z@`@`@Z@Y@b+b+b+b+b+b+b+b+b+b+b+c+X@X+ #U@T@",
".#+#@###`+ @b+b+b+b+b+b+b+b+b+b+b+:@$#%#%#$#:@b+b+b+b+b+b+b+b+b+b+b+ @`+&#*#=#-#",
"R+;#>#,#'#_@)#b+b+b+b+b+b+b+b+b+b+b+:@A@A@:@b+b+b+b+b+b+b+b+b+b+b+)#!+'#!#~#{#]#",
"^#/#(#_#:#<#!+[#[#[#}#c+c+|#[#1#b+b+b+b+b+b+b+b+1#[#}#c+c+|#[#[#[#!+2#3#4#5#6#7#",
"8#9#0#a#b#c#d#T+T+).e#&@&@=@).f#c+b+b+b+b+b+b+c+f#).e#&@&@=@).T+T+d#g#h#..i#j#k#",
"l#m#n#o#p#q#).).).).r#s#s#*@).N.b+b+b+b+b+b+b+b+N.).=@t#s#u#).).).).v#w#w @.x#* ",
"l#e.y#z#A#B#C#D#E#F#G#H#I#J#).T+O.K#K#K#K#K#K#O.T+).L#I#M#N#O#P#Q#R#S#T#w / k#* ",
"@ v * * t U#V#W#X#Y#Z#`#).).).).).).).).).).).).).).).). $.$+$@$$+#$( $$w l#%$+ ",
"U#w + @ * &$* *$=$-$;$>$,$'$)$!$~${$]$^$/$($_$:$<$[$}$|$1$2$3$t 4$5$5.6$7$8$9$& ",
"0$j#a$a$b$c$d$e$f$g$h$i$j$k$l$m$n$o$p$q$r$s$t$u$v$w$x$y$z$A$9.+ B$C$D$E$F$G$H$I$",
",@J$K$L$M$N$O$+ i#P$9.@ Q$R$S$T$U$Q$V$0 0 W$X$Y$Z$`$ %.%+%@%#%$%%%e$&%*%=%-%;%>%",
"+ ,%3 '%M$)%!%+ : 0.9.+ @ V.~%T l#@ * & 9.U#{%]%4.^%/%(%_%:%<%[%j#'@0.}%w+|%1%2%"};
