/* XPM */
static char * cat_xpm[] = {
"40 40 902 2",
"  	c #159E2F",
". 	c #188639",
"+ 	c #1A7B3E",
"@ 	c #1A7C3D",
"# 	c #19863A",
"$ 	c #19A823",
"% 	c #1A9134",
"& 	c #1A7F3C",
"* 	c #1A7E3D",
"= 	c #1A813B",
"- 	c #188D35",
"; 	c #199435",
"> 	c #1F8938",
", 	c #19B31F",
"' 	c #198B34",
") 	c #1A9B31",
"! 	c #36BB26",
"~ 	c #52BC34",
"{ 	c #51BA35",
"] 	c #2AA731",
"^ 	c #178939",
"/ 	c #197F3D",
"( 	c #169333",
"_ 	c #188138",
": 	c #19753B",
"< 	c #18733A",
"[ 	c #105228",
"} 	c #010000",
"| 	c #020D05",
"1 	c #0A381C",
"2 	c #19883A",
"3 	c #169632",
"4 	c #1C813C",
"5 	c #46AB38",
"6 	c #41A339",
"7 	c #1C9532",
"8 	c #19B31E",
"9 	c #149F2E",
"0 	c #1A7A3E",
"a 	c #19843A",
"b 	c #169433",
"c 	c #188F32",
"d 	c #18A128",
"e 	c #189D2D",
"f 	c #168F35",
"g 	c #18823A",
"h 	c #19A029",
"i 	c #19A725",
"j 	c #18972D",
"k 	c #2C9239",
"l 	c #3FAC33",
"m 	c #20B71E",
"n 	c #198C35",
"o 	c #329E36",
"p 	c #3EAF31",
"q 	c #30933A",
"r 	c #2E8F3B",
"s 	c #21893A",
"t 	c #197F3C",
"u 	c #1A7C3E",
"v 	c #188139",
"w 	c #105927",
"x 	c #0B3B1C",
"y 	c #0B3C1C",
"z 	c #062E13",
"A 	c #020002",
"B 	c #104F27",
"C 	c #145E30",
"D 	c #1A7F3D",
"E 	c #1A7D3D",
"F 	c #2A8C3C",
"G 	c #3C9E39",
"H 	c #39A237",
"I 	c #1D9034",
"J 	c #188A39",
"K 	c #18853A",
"L 	c #178F35",
"M 	c #1F8F38",
"N 	c #37A235",
"O 	c #26B423",
"P 	c #15AC24",
"Q 	c #24A230",
"R 	c #3BA734",
"S 	c #1FB61E",
"T 	c #18B020",
"U 	c #2CA72E",
"V 	c #4CAF38",
"W 	c #4FBD33",
"X 	c #24AF25",
"Y 	c #1A8837",
"Z 	c #2E8C3D",
"` 	c #319738",
" .	c #199036",
"..	c #189D2E",
"+.	c #198439",
"@.	c #1A8F35",
"#.	c #19A02D",
"$.	c #188B2C",
"%.	c #164C29",
"&.	c #102C18",
"*.	c #080307",
"=.	c #010001",
"-.	c #083E16",
";.	c #0E6C22",
">.	c #197A3B",
",.	c #19853A",
"'.	c #179036",
").	c #178D37",
"!.	c #2E8C3C",
"~.	c #319837",
"{.	c #1C7C3E",
"].	c #29893C",
"^.	c #249A35",
"/.	c #179533",
"(.	c #20823D",
"_.	c #3CA337",
":.	c #38B72A",
"<.	c #21AD28",
"[.	c #2CA92F",
"}.	c #4FBE32",
"|.	c #27B424",
"1.	c #16A42A",
"2.	c #2CA433",
"3.	c #44B134",
"4.	c #3EB92D",
"5.	c #1EA42D",
"6.	c #19833A",
"7.	c #1A8439",
"8.	c #18992F",
"9.	c #15A02D",
"0.	c #18B41D",
"a.	c #198E34",
"b.	c #199033",
"c.	c #17931C",
"d.	c #157715",
"e.	c #0C030C",
"f.	c #0C0D0C",
"g.	c #0B0B0B",
"h.	c #050907",
"i.	c #105922",
"j.	c #159930",
"k.	c #19823B",
"l.	c #188C37",
"m.	c #159C2F",
"n.	c #179035",
"o.	c #198538",
"p.	c #1A823A",
"q.	c #1A843A",
"r.	c #169334",
"s.	c #45A838",
"t.	c #38AA33",
"u.	c #179433",
"v.	c #1A833B",
"w.	c #20833D",
"x.	c #4CB037",
"y.	c #36B02F",
"z.	c #2DAC2E",
"A.	c #4FBB34",
"B.	c #24A330",
"C.	c #14A02E",
"D.	c #189135",
"E.	c #1C9434",
"F.	c #1AB51C",
"G.	c #15A42B",
"H.	c #198A37",
"I.	c #199B2F",
"J.	c #17AA25",
"K.	c #159F2E",
"L.	c #18B51D",
"M.	c #199232",
"N.	c #19763A",
"O.	c #12361B",
"P.	c #0E190F",
"Q.	c #010101",
"R.	c #030805",
"S.	c #101110",
"T.	c #145A26",
"U.	c #169833",
"V.	c #19823C",
"W.	c #188A38",
"X.	c #179235",
"Y.	c #4DB337",
"Z.	c #32943B",
"`.	c #1D813C",
" +	c #198D33",
".+	c #19AA24",
"++	c #1E8A38",
"@+	c #48AB38",
"#+	c #36B828",
"$+	c #2DB923",
"%+	c #4BB635",
"&+	c #268C3A",
"*+	c #159832",
"=+	c #188E35",
"-+	c #1A9334",
";+	c #18B41C",
">+	c #19A62B",
",+	c #18AC22",
"'+	c #19A12A",
")+	c #198438",
"!+	c #18B21F",
"~+	c #15A12A",
"{+	c #157E31",
"]+	c #062D12",
"^+	c #020603",
"/+	c #020704",
"(+	c #0F4D26",
"_+	c #1C7D3B",
":+	c #1E803D",
"<+	c #178F36",
"[+	c #55BC36",
"}+	c #2F903B",
"|+	c #19793E",
"1+	c #199230",
"2+	c #199930",
"3+	c #2B903A",
"4+	c #23A829",
"5+	c #20BB1B",
"6+	c #2DB127",
"7+	c #1E8739",
"8+	c #19833B",
"9+	c #1A803B",
"0+	c #199334",
"a+	c #1EB71C",
"b+	c #45B830",
"c+	c #23B81E",
"d+	c #16A926",
"e+	c #169633",
"f+	c #159632",
"g+	c #158F35",
"h+	c #147D28",
"i+	c #13491F",
"j+	c #041608",
"k+	c #010202",
"l+	c #0C2F18",
"m+	c #1B4D26",
"n+	c #17763B",
"o+	c #177B3E",
"p+	c #20813D",
"q+	c #46A939",
"r+	c #258E39",
"s+	c #19813C",
"t+	c #169533",
"u+	c #55BD35",
"v+	c #2EA033",
"w+	c #18833B",
"x+	c #199231",
"y+	c #18B61C",
"z+	c #169F2B",
"A+	c #18843A",
"B+	c #198C34",
"C+	c #189D2B",
"D+	c #17A32A",
"E+	c #26A131",
"F+	c #3CBB29",
"G+	c #55C033",
"H+	c #44BD2C",
"I+	c #2DB02B",
"J+	c #22A62F",
"K+	c #3FAB2E",
"L+	c #687020",
"M+	c #4E5518",
"N+	c #06030C",
"O+	c #030303",
"P+	c #030504",
"Q+	c #0B1009",
"R+	c #62651E",
"S+	c #5B6E27",
"T+	c #23853D",
"U+	c #52B836",
"V+	c #178C36",
"W+	c #48AF37",
"X+	c #289F33",
"Y+	c #178C37",
"Z+	c #199233",
"`+	c #19A927",
" @	c #169831",
".@	c #189035",
"+@	c #1A823B",
"@@	c #179233",
"#@	c #2C9F34",
"$@	c #48B037",
"%@	c #4AB734",
"&@	c #4AB136",
"*@	c #36A434",
"=@	c #2D9F2F",
"-@	c #58A52A",
";@	c #935D04",
">@	c #724505",
",@	c #47290A",
"'@	c #563002",
")@	c #542F01",
"!@	c #462701",
"~@	c #532E01",
"{@	c #563001",
"]@	c #472701",
"^@	c #4F2C01",
"/@	c #512E01",
"(@	c #8E5501",
"_@	c #7E6117",
":@	c #0F7139",
"<@	c #23823B",
"[@	c #52B936",
"}@	c #18863A",
"|@	c #188D36",
"1@	c #187A3E",
"2@	c #1A793E",
"3@	c #19A626",
"4@	c #1A9730",
"5@	c #19813B",
"6@	c #1D7D3E",
"7@	c #25853D",
"8@	c #189D30",
"9@	c #179134",
"0@	c #19723B",
"a@	c #156E35",
"b@	c #12872B",
"c@	c #147134",
"d@	c #176635",
"e@	c #0B351C",
"f@	c #000003",
"g@	c #000004",
"h@	c #5D3604",
"i@	c #945903",
"j@	c #AE6803",
"k@	c #AA6603",
"l@	c #915703",
"m@	c #A86503",
"n@	c #AF6803",
"o@	c #935803",
"p@	c #A16003",
"q@	c #A76404",
"r@	c #3F2405",
"s@	c #040003",
"t@	c #1D612B",
"u@	c #48A031",
"v@	c #267A35",
"w@	c #186B37",
"x@	c #1A6C37",
"y@	c #26843B",
"z@	c #1A7B3F",
"A@	c #179136",
"B@	c #19A427",
"C@	c #1A9232",
"D@	c #189134",
"E@	c #169234",
"F@	c #47AB38",
"G@	c #24A42F",
"H@	c #158F34",
"I@	c #185C30",
"J@	c #122C1A",
"K@	c #123518",
"L@	c #122F1B",
"M@	c #132A1B",
"N@	c #111B14",
"O@	c #101010",
"P@	c #261B0F",
"Q@	c #39260F",
"R@	c #412A0F",
"S@	c #38250F",
"T@	c #3F290F",
"U@	c #422B0F",
"V@	c #3C280F",
"W@	c #1C1510",
"X@	c #142818",
"Y@	c #203D1A",
"Z@	c #17301B",
"`@	c #132B1C",
" #	c #182E1C",
".#	c #4AA933",
"+#	c #156633",
"@#	c #083318",
"##	c #156C32",
"$#	c #18AE20",
"%#	c #16A52A",
"&#	c #178D36",
"*#	c #19803C",
"=#	c #27883C",
"-#	c #4FB536",
";#	c #399D37",
">#	c #11552B",
",#	c #060907",
"'#	c #060B05",
")#	c #040604",
"!#	c #040304",
"~#	c #040404",
"{#	c #030304",
"]#	c #040A07",
"^#	c #040C08",
"/#	c #050C08",
"(#	c #030706",
"_#	c #020304",
":#	c #030404",
"<#	c #040805",
"[#	c #040705",
"}#	c #070808",
"|#	c #287F38",
"1#	c #103E20",
"2#	c #121011",
"3#	c #113C1E",
"4#	c #135228",
"5#	c #197E3C",
"6#	c #19972E",
"7#	c #16A12B",
"8#	c #20843C",
"9#	c #35A834",
"0#	c #3DA338",
"a#	c #2D8D3B",
"b#	c #156831",
"c#	c #12591A",
"d#	c #2C661C",
"e#	c #113D17",
"f#	c #031107",
"g#	c #0B511A",
"h#	c #0C4E1D",
"i#	c #0E4322",
"j#	c #19743B",
"k#	c #0D100D",
"l#	c #282725",
"m#	c #161313",
"n#	c #081F0A",
"o#	c #32903B",
"p#	c #1B7E3D",
"q#	c #289337",
"r#	c #2F8E3C",
"s#	c #18813B",
"t#	c #149A30",
"u#	c #189533",
"v#	c #189434",
"w#	c #1C9A33",
"x#	c #44B433",
"y#	c #2E832E",
"z#	c #000000",
"A#	c #0A0909",
"B#	c #0F0E0E",
"C#	c #0F0E0D",
"D#	c #060606",
"E#	c #051E0C",
"F#	c #178B37",
"G#	c #0D120E",
"H#	c #161514",
"I#	c #112B09",
"J#	c #50B436",
"K#	c #21833D",
"L#	c #1F803E",
"M#	c #3DA139",
"N#	c #40A439",
"O#	c #18803C",
"P#	c #18B21C",
"Q#	c #19A728",
"R#	c #158A2B",
"S#	c #2F7C23",
"T#	c #040005",
"U#	c #1C1B1A",
"V#	c #242321",
"W#	c #141312",
"X#	c #031B0B",
"Y#	c #197D3B",
"Z#	c #0C0C0B",
"`#	c #151513",
" $	c #122B09",
".$	c #52B735",
"+$	c #27893C",
"@$	c #47AA39",
"#$	c #3A9D39",
"$$	c #23833D",
"%$	c #1A853A",
"&$	c #199E2A",
"*$	c #18A829",
"=$	c #187739",
"-$	c #084017",
";$	c #142E11",
">$	c #262523",
",$	c #272624",
"'$	c #292724",
")$	c #2F2924",
"!$	c #2A2724",
"~$	c #1A1714",
"{$	c #041E0B",
"]$	c #168F32",
"^$	c #178E35",
"/$	c #0C0B0A",
"($	c #131211",
"_$	c #51B635",
":$	c #278A3C",
"<$	c #4BAF38",
"[$	c #37AA33",
"}$	c #1B7C3E",
"|$	c #179135",
"1$	c #198F34",
"2$	c #148C2E",
"3$	c #04360D",
"4$	c #0D110E",
"5$	c #282624",
"6$	c #50381F",
"7$	c #955D0D",
"8$	c #5D3E1E",
"9$	c #262624",
"0$	c #945C0D",
"a$	c #593915",
"b$	c #1C1E1C",
"c$	c #093714",
"d$	c #0E6A22",
"e$	c #0C0E0C",
"f$	c #0C240A",
"g$	c #3E9D39",
"h$	c #22863C",
"i$	c #37A535",
"j$	c #2BA133",
"k$	c #249237",
"l$	c #379C39",
"m$	c #1E8F38",
"n$	c #2A9537",
"o$	c #34A036",
"p$	c #13932C",
"q$	c #04390D",
"r$	c #5F3F1D",
"s$	c #B86E00",
"t$	c #6F461C",
"u$	c #252624",
"v$	c #232523",
"w$	c #70461C",
"x$	c #252524",
"y$	c #030103",
"z$	c #09681B",
"A$	c #24A031",
"B$	c #031E0A",
"C$	c #168538",
"D$	c #149732",
"E$	c #31903C",
"F$	c #23A72E",
"G$	c #329839",
"H$	c #399C39",
"I$	c #39A137",
"J$	c #158532",
"K$	c #05310F",
"L$	c #080A08",
"M$	c #1C1C1B",
"N$	c #222120",
"O$	c #46331F",
"P$	c #7F4F0C",
"Q$	c #50371E",
"R$	c #4A2E2E",
"S$	c #633537",
"T$	c #352927",
"U$	c #030403",
"V$	c #095D20",
"W$	c #35A734",
"X$	c #56BF35",
"Y$	c #042309",
"Z$	c #14962F",
"`$	c #19813A",
" %	c #169732",
".%	c #30903C",
"+%	c #4FBC34",
"@%	c #22A52F",
"#%	c #4FB834",
"$%	c #1C7F3D",
"%%	c #187439",
"&%	c #063413",
"*%	c #021004",
"=%	c #050505",
"-%	c #060706",
";%	c #181A17",
">%	c #2B2823",
",%	c #362C22",
"'%	c #2C2823",
")%	c #292725",
"!%	c #8A3E44",
"~%	c #C1505A",
"{%	c #562F30",
"]%	c #0C4F26",
"^%	c #35993A",
"/%	c #55BC35",
"(%	c #0D110D",
"_%	c #051C08",
":%	c #0D6B15",
"<%	c #198B33",
"[%	c #19763B",
"}%	c #2E8939",
"|%	c #4BAD34",
"1%	c #248239",
"2%	c #4DAF34",
"3%	c #38A82F",
"4%	c #148C32",
"5%	c #187839",
"6%	c #13922D",
"7%	c #12662B",
"8%	c #1C1C1A",
"9%	c #242322",
"0%	c #252422",
"a%	c #252423",
"b%	c #302726",
"c%	c #382828",
"d%	c #2A2625",
"e%	c #041406",
"f%	c #0F5027",
"g%	c #198C38",
"h%	c #19A02E",
"i%	c #0B0B0A",
"j%	c #1A1918",
"k%	c #143915",
"l%	c #0E4A17",
"m%	c #0E3F1C",
"n%	c #12441B",
"o%	c #1E5518",
"p%	c #0F411B",
"q%	c #225419",
"r%	c #175317",
"s%	c #074716",
"t%	c #093D1B",
"u%	c #074B15",
"v%	c #0E391C",
"w%	c #191817",
"x%	c #141313",
"y%	c #111010",
"z%	c #131412",
"A%	c #1B1619",
"B%	c #151914",
"C%	c #0F6822",
"D%	c #14732F",
"E%	c #188B38",
"F%	c #0C0F0C",
"G%	c #232020",
"H%	c #191516",
"I%	c #191616",
"J%	c #191417",
"K%	c #191517",
"L%	c #1F1E1D",
"M%	c #151413",
"N%	c #010201",
"O%	c #0D0F0D",
"P%	c #1A1A18",
"Q%	c #252522",
"R%	c #171615",
"S%	c #12571D",
"T%	c #105C29",
"U%	c #0F2416",
"V%	c #1E1D1C",
"W%	c #0D0D0C",
"X%	c #141413",
"Y%	c #1E1D1B",
"Z%	c #181B18",
"`%	c #072B11",
" &	c #127B29",
".&	c #197E3B",
"+&	c #178E36",
"@&	c #146131",
"#&	c #1E1F1C",
"$&	c #262524",
"%&	c #1E1E1C",
"&&	c #070707",
"*&	c #080808",
"=&	c #080908",
"-&	c #061F0E",
";&	c #0B3F1F",
">&	c #146231",
",&	c #1D1C1B",
"'&	c #21201F",
")&	c #21201E",
"!&	c #1F201F",
"~&	c #18662D",
"{&	c #177535",
"]&	c #1A7E3C",
"^&	c #188839",
"/&	c #159931",
"(&	c #169532",
"_&	c #187539",
":&	c #107327",
"<&	c #114817",
"[&	c #120E0F",
"}&	c #121210",
"|&	c #1C1D1A",
"1&	c #120B13",
"2&	c #169E23",
"3&	c #18A12A",
"4&	c #188B37",
"5&	c #179334",
"6&	c #169832",
"7&	c #188739",
"8&	c #169132",
"9&	c #106E25",
"0&	c #0C4120",
"a&	c #010803",
"b&	c #161816",
"c&	c #37AE26",
"d&	c #29A72F",
"e&	c #159C30",
"f&	c #198638",
"g&	c #188F34",
"h&	c #176C36",
"i&	c #021105",
"j&	c #161916",
"k&	c #3DA72E",
"l&	c #359D38",
"m&	c #197A3E",
"n&	c #169C30",
"o&	c #2C9439",
"p&	c #28873D",
"q&	c #197B3E",
"r&	c #157333",
"s&	c #021205",
"t&	c #21211F",
"u&	c #192719",
"v&	c #04300B",
"w&	c #128F2D",
"x&	c #189732",
"y&	c #41B233",
"z&	c #3EA538",
"A&	c #21813D",
"B&	c #1B7B3E",
"C&	c #147233",
"D&	c #090A0A",
"E&	c #0C581A",
"F&	c #128A27",
"G&	c #188239",
"H&	c #219C33",
"I&	c #3AAE32",
"J&	c #3E9F39",
"K&	c #1E7E3E",
"L&	c #1C9D31",
"M&	c #41AF35",
"N&	c #53B937",
"O&	c #3D9731",
"P&	c #051905",
"Q&	c #0E5325",
"R&	c #1A823C",
"S&	c #19AA27",
"T&	c #19992F",
"U&	c #22853C",
"V&	c #239038",
"W&	c #169A31",
"X&	c #1B9435",
"Y&	c #32A833",
"Z&	c #4AB933",
"`&	c #419C31",
" *	c #061A05",
".*	c #0D5524",
"+*	c #199B2D",
"@*	c #1A8D36",
"#*	c #149333",
"$*	c #38A435",
"%*	c #368F32",
"&*	c #051805",
"**	c #201E1D",
"=*	c #242422",
"-*	c #211F1E",
";*	c #272524",
">*	c #0C621E",
",*	c #15A02E",
"'*	c #188C38",
")*	c #1A8C38",
"!*	c #19803B",
"~*	c #1A8839",
"{*	c #167433",
"]*	c #051C0B",
"^*	c #142016",
"/*	c #22201F",
"(*	c #030203",
"_*	c #0B1508",
":*	c #0B1E0E",
"<*	c #201F1E",
"[*	c #0A0A0A",
"}*	c #0B1D0A",
"|*	c #1D221A",
"1*	c #171716",
"2*	c #061807",
"3*	c #0F1E12",
"4*	c #051B07",
"5*	c #0D7417",
"6*	c #15A12D",
"7*	c #15AA26",
"8*	c #19A729",
"9*	c #178F34",
"0*	c #197A3C",
"a*	c #177437",
"b*	c #0F6320",
"c*	c #081008",
"d*	c #061206",
"e*	c #429227",
"f*	c #258A28",
"g*	c #081D0A",
"h*	c #091108",
"i*	c #091507",
"j*	c #031202",
"k*	c #064510",
"l*	c #329D2B",
"m*	c #2E661A",
"n*	c #071307",
"o*	c #081208",
"p*	c #061305",
"q*	c #050F04",
"r*	c #15971C",
"s*	c #107A23",
"t*	c #080E08",
"u*	c #07260D",
"v*	c #139826",
"w*	c #17A81E",
"x*	c #16AB24",
"y*	c #18A828",
"z*	c #1A7B3D",
"A*	c #166D34",
"B*	c #12542A",
"C*	c #106225",
"D*	c #1D7421",
"E*	c #368026",
"F*	c #2A8336",
"G*	c #18942F",
"H*	c #106525",
"I*	c #246629",
"J*	c #328221",
"K*	c #188113",
"L*	c #118221",
"M*	c #39AC30",
"N*	c #3A9825",
"O*	c #138012",
"P*	c #13721E",
"Q*	c #2F7D23",
"R*	c #3E8A25",
"S*	c #38AE2D",
"T*	c #15922A",
"U*	c #115729",
"V*	c #125629",
"W*	c #116B27",
"X*	c #15A42A",
"Y*	c #19AF20",
"Z*	c #1A8638",
"`*	c #199A2C",
" =	c #198637",
".=	c #18AE23",
"+=	c #198A35",
"@=	c #199035",
"#=	c #19992D",
"$=	c #1E8D39",
"%=	c #34983A",
"&=	c #25843D",
"*=	c #249A36",
"==	c #3BAA34",
"-=	c #21853C",
";=	c #2A9339",
">=	c #39A834",
",=	c #1FB91D",
"'=	c #17A727",
")=	c #2EA233",
"!=	c #33AC2E",
"~=	c #1AB91A",
"{=	c #1BAE24",
"]=	c #35A534",
"^=	c #51B637",
"/=	c #44B930",
"(=	c #1AA926",
"_=	c #1C843B",
":=	c #36953C",
"<=	c #199B30",
"[=	c #1B9334",
"}=	c #39B72A",
"|=	c #208B38",
"1=	c #17A626",
"2=	c #199C2F",
"3=	c #2A9538",
"4=	c #299A36",
"5=	c #23A62E",
"6=	c #32923B",
"7=	c #139A30",
"8=	c #189330",
"9=	c #18A129",
"0=	c #189630",
"a=	c #188A36",
"b=	c #19A228",
"c=	c #169033",
"d=	c #329A38",
"e=	c #35AD2E",
"f=	c #1B8936",
"g=	c #3AAE30",
"h=	c #39A734",
"i=	c #35973B",
"j=	c #30943A",
"k=	c #1C8D38",
"l=	c #1A9F30",
"m=	c #40A637",
"n=	c #399C3A",
"o=	c #2A9438",
"p=	c #18B819",
"q=	c #187B3D",
"r=	c #3FB233",
"s=	c #24A62E",
"t=	c #49B634",
"u=	c #32913C",
"v=	c #159B30",
"w=	c #19AC20",
"x=	c #1A8739",
"y=	c #1C9430",
"z=	c #198935",
"A=	c #1BAA26",
"B=	c #3DBB2A",
"C=	c #4BB834",
"D=	c #23A42F",
"E=	c #20853C",
"F=	c #48AE37",
"G=	c #40A239",
"H=	c #179530",
"I=	c #18B71B",
"  . + @ # $ % & * @ & = - ; > , ' ) ! ~ { ] ^ + / ( _ : < [ } | 1 2 3 4 5 6 7 8 ",
"9 . 0 a b c d e f g h i j k l m n o p q r s t 0 u v w x y z A B C D a E F G H I ",
"J t K L M N O P Q R S T U V W X Y Z `  ...+.@.#.$.%.&.*.=.-.;.>.,.'.).* + !.~. .",
"{.].^./.(._.:.<.[.}.|.1.2.3.4.5.6.7.8.9.0.a.b.c.d.e.f.g.h.i.j.k.l.m.n.D o.p.q.r.",
"].s.t.u.v.w.x.y.z.A.B.C.D.E.F.G.H.I.J.K.L.M.N.O.P.Q.Q.R.S.T.U.V.W.X.+ u b '.+ u ",
"Y.Z.`. +.+++@+#+$+%+&+*+=+-+;+>+,+'+)++.!+~+{+]+^+Q.Q.Q./+(+_+@ u * + :+u.<+0 E ",
"[+}+|+1+L.2+3+4+5+6+7+8+9+0+a+b+c+d+e+f+g+h+i+j+Q.Q.Q.Q.k+l+m+n+o++ p+q+r+s+,.t+",
"u+v+w+x+y+z+A+B+C+D+q.+ a E+F+G+H+I+J+K+L+M+N+O+Q.Q.Q.Q.Q.P+Q+R+S+o+T+U+F w+L V+",
"W+X+Y+Z+`+ @.@+@s+@@9+s+Y+#@$@%@&@*@=@-@;@>@,@'@)@!@~@{@]@^@/@(@_@:@<@[@F }@|@E ",
"1@2@'.t+@ Y 3@4@5@6@7@8@9@0@a@b@c@d@e@f@g@h@i@j@k@l@m@n@o@p@q@r@g@s@t@u@v@w@x@y@",
"+ z@A@t+v.B@C@D@E@7@F@G@H@I@J@K@L@M@N@O@O@P@Q@R@R@S@T@U@Q@V@T@W@O@O@X@Y@Z@`@ #.#",
"+#@###t q.$#%#&#*#=#-#~ ;#>#,#'#)#!#~#~#~#~#{#]#^#/#(#_#:#:#:#~#~#~#~#!#<#[#}#|#",
"1#2#3#4#5#6#7#Y++ 8#9#0#a#b#c#d#e#} Q.Q.Q.Q.Q.Q.Q.Q.Q.Q.Q.Q.Q.Q.Q.Q.Q.f#g#h#i#j#",
"k#l#m#n#o#p#).q#r#s#t#u#0+v#w#x#y#z#A#B#C#C#C#C#C#C#C#C#C#C#C#C#C#B#D#E#F#J z@+ ",
"G#l#H#I#J#K#L#M#N#O#b ,+P#Q#6.R#S#T#U#V#V#V#V#V#V#V#V#V#V#V#V#V#V#V#W#X#Y#E + + ",
"Z#l#`# $.$+$@$#$$$u * %$&$*$=$-$;$V#>$,$,$,$,$,$'$)$!$,$,$,$,$,$'$)$~${$]$^$+ + ",
"/$>$($I#_$:$<$[$D.}$+ |$@@1$2$3$4$,$,$,$,$,$,$5$6$7$8$9$,$,$,$5$6$0$a$b$c$d$=+p#",
"e$l#H#f$g$h$i$j$k$l$m$<+n$o$p$q$G#l#,$,$,$,$,$5$r$s$t$9$,$u$v$,$r$s$w$x$y$z$A$G ",
"G#l#H#B$C$E D$Y+E$W F$G$H$I$J$K$L$M$U#U#M$N$,$,$O$P$Q$9$5$R$S$T$O$P$Q$>$U$V$W$X$",
"G#l#H#Y$Z$`$ %l..%+%@%#%M#$%%%&%*%~#=%D#-%;%,$,$>%,%'%,$)%!%~%{%>%,%'%>$O+]%^%/%",
"(%,$,$>$_%:%<%[%}%|%1%2%3%4%5%6%7%A 8%9%9%0%a%,$,$,$,$,$,$b%c%d%,$,$>$0%e%f%g%h%",
"i%,$,$,$j%k%l%m%n%o%p%q%r%s%t%u%v%w%x%y%y%y%z%0%,$,$,$,$,$,$,$,$,$l#A%B%C%D%E%C.",
"F%,$,$,$,$G%H%I%I%J%I%J%J%K%I%K%U#l#L%M%N%O%P%Q%,$,$,$,$,$,$,$,$0%R%S%T%t+A@s+J ",
"U%V%V#,$,$,$>$>$>$>$>$>$>$>$>$>$>$,$,$0%W%X%Y%V%V%V%V%V%V%V%V%V%Z%`% &.&+&l.0 + ",
"@&=.#&,$,$,$,$,$,$,$,$,$,$,$,$,$,$,$,$,$$&%&&&*&*&*&*&*&*&*&=&-&;&. b / u E t t ",
">&} ,&>$0%>$,$,$,$,$,$,$,$,$,$,$,$,$,$,$,$0%'&'&'&'&'&'&'&)&!&~&{&]&*#* + ^&/&(&",
"_&:&<&[&}&|&,$,$,$,$,$,$,$,$,$,$,$,$,$,$,$,$,$,$,$,$,$,$,$)&1&2&3&4&E 5&*#E%6&7&",
"* 8&9&0&a&b&,$,$,$,$,$,$,$,$,$,$,$,$,$,$,$,$,$,$,$,$,$,$,$Y%f@c&d&K & e&f&k.8++ ",
"E g&}@h&i&j&,$,$,$,$,$,$,$,$,$,$,$,$,$,$,$,$,$,$,$,$,$,$,$Y%f@k&l&m&t n&o&p&q&+ ",
"+ + + r&s&j&,$,$,$,$,$,$,$,$,$,$,$,$,$,$,$,$,$,$,$,$,$,$t&u&v&w&&#+ * x&y&z&A&B&",
"0 m&1@C&s&j&,$,$,$,$,$,$,$,$,$,$,$,$,$,$,$,$,$,$,$,$,$>$D&E&F&G&]&+ 0 s+H&I&J&K&",
"L&M&N&O&P&j&,$,$,$,$,$,$,$,$,$,$,$,$,$,$,$,$,$,$,$,$,$>$O+Q&R&S&T&# r.t *#U&V&W&",
"X&Y&Z&`& *j&,$,$,$,$,$,$,$,$,$,$,$,$,$,$,$,$,$,$,$,$,$>${#.*W.+*@*s+L V+E k.V+n.",
"* #*$*%*&*b&5$,$>$L%L%**,$,$,$)&L%L%9%,$,$=*L%L%-*,$,$;*y$>*,*'*'*)*!*e&6.'*r.E ",
"* n.~*{*]*^*/*'&U#(*_*:*'&'&<*[*[#}*|*'&'&1*(*2*3*/*'&L%4*5*6*9 7*8*5@e&6.^&9*E ",
"@ * E 0*a*b**.c*d*U$e*f*g*h*i*j*k*l*m*n*o*p*q*r*s**.t*u*v*w*H.e&x*y*`$m.6.E & + ",
"6&6.+ + z*A*B*C*D*E*F*G*H*I*J*K*L*M*N*O*P*Q*R*S*T*U*V*W*X*Y*Z*k.`*y* =.=+=@=#=& ",
"'.).s+t $=%=&=# *===-=).'.;=>=,='=)=!=~={=]=^=/=(=_=:=n$5&2+9++ H.<=[=}=|=5&1=2=",
"@ Y+3=4=5=%@6=0 s+7=k.+ 8+u.8=9=0=7&a=b=b=c=d=e=, f=g=h=i=j=k=E%k.7&l=m=n=o=7#p=",
"+ q=6 r=s=t=u=+ V.v=k.+ + 0+w=x=* @ E & +@(&)*y=!+z=A=B=u+C=D=9 L ^& @E=F=G=H=I="};
