/* XPM */
static char *_b44cbb29b074863f063916cfe4ec410M4EymsYtT8YUfbty[] = {
/* columns rows colors chars-per-pixel */
"8 10 27 1 ",
"  c None",
". c #040404",
"X c #060606",
"o c #070707",
"O c #090909",
"+ c #0C0B0B",
"@ c #0C0C0B",
"# c #0D0C0C",
"$ c #0E0E0E",
"% c #131312",
"& c #141412",
"* c #161414",
"= c #161614",
"- c #181716",
"; c #1B1A19",
": c #1D1C1B",
"> c #1D1D1B",
", c #311F04",
"< c #201F1D",
"1 c #222120",
"2 c #252422",
"3 c #272624",
"4 c #2D2424",
"5 c #412A06",
"6 c #412908",
"7 c #41321B",
"8 c #4B381B",
/* pixels */
"        ",
"     o  ",
"    5,6 ",
"o  o#@@ ",
"O  =387 ",
"%# +;34 ",
"=333<>& ",
" >3332  ",
" >111-  ",
"        "
};
