/* XPM */
static char *fb028d05373c459db74d7688413c6e68FO83JC5Lcnym2nMu[] = {
/* columns rows colors chars-per-pixel */
"20 20 129 2 ",
"   c None",
".  c black",
"X  c #301208",
"o  c #441A0A",
"O  c #491B09",
"+  c #4D1B08",
"@  c #4D1C08",
"#  c #4E1C08",
"$  c #603112",
"%  c #603113",
"&  c #7E3215",
"*  c #423D3E",
"=  c #663320",
"-  c #7E4F31",
";  c #5A5A5A",
":  c #5B5B5B",
">  c #654E4A",
",  c #704F42",
"<  c #7C5D49",
"1  c #796D61",
"2  c #7D7175",
"3  c #812E0E",
"4  c #812F0E",
"5  c #963611",
"6  c #933D10",
"7  c #9A3915",
"8  c #9D3C18",
"9  c #9F4C17",
"0  c #944419",
"q  c #9F491D",
"w  c #A7411D",
"e  c #A8411B",
"r  c #A8421C",
"t  c #A8421D",
"y  c #B0431B",
"u  c #B2441A",
"i  c #B64419",
"p  c #B5441B",
"a  c #B6451A",
"s  c #B7451A",
"d  c #B9461A",
"f  c #9E462F",
"g  c #9F5120",
"h  c #A0442B",
"j  c #A9472B",
"k  c #BA4923",
"l  c #A05120",
"z  c #B95A23",
"x  c #A84A35",
"c  c #B55532",
"v  c #B55F3B",
"b  c #BD5E3A",
"n  c #BB5E3E",
"m  c #BA5F3F",
"M  c #BF6126",
"N  c #B5603B",
"B  c #CF4A17",
"V  c #C04718",
"C  c #C54818",
"Z  c #E15615",
"A  c #ED6219",
"S  c #C35321",
"D  c #C55127",
"F  c #CD5D22",
"G  c #C25C2F",
"H  c #CB5829",
"J  c #CB582A",
"K  c #D25C23",
"L  c #C95F33",
"P  c #E15F22",
"I  c #DE6A2A",
"U  c #DF712C",
"Y  c #CF6637",
"T  c #C7663D",
"R  c #C46C3A",
"E  c #D56D3B",
"W  c #E76625",
"Q  c #ED6721",
"!  c #E86C29",
"~  c #ED6D28",
"^  c #ED6D29",
"/  c #F36E24",
"(  c #F3742C",
")  c #F97B2F",
"_  c #E37438",
"`  c #E97C3A",
"'  c #F17B35",
"]  c #F17B36",
"[  c #F97B30",
"{  c #BA5F40",
"}  c #946257",
"|  c #D06D45",
" . c #D57747",
".. c #E37E45",
"X. c #FF8233",
"o. c #A08460",
"O. c #BB8B6E",
"+. c #D6834C",
"@. c #DB8B51",
"#. c #E6874A",
"$. c #FF964D",
"%. c #E4995B",
"&. c #FFA059",
"*. c #D7986F",
"=. c #FC9E63",
"-. c #DFA46C",
";. c #DAA67D",
":. c #FFAA66",
">. c #FFB473",
",. c #FFB573",
"<. c #FFB877",
"1. c #9A8F81",
"2. c #96888E",
"3. c #979797",
"4. c #989898",
"5. c #A69FA1",
"6. c gray71",
"7. c #DEBCA6",
"8. c #C8B6BC",
"9. c #FFD399",
"0. c #FFD39A",
"q. c #F6C8AA",
"w. c #CDBDC3",
"e. c #C9C5C6",
"r. c #D8CCD0",
"t. c LightGray",
"y. c #F5D6C2",
"u. c #E7E3E5",
"i. c gray95",
/* pixels */
"                              0.0.0.    ",
"                    @.R *.1 o.0.&.&.#.  ",
"                %.v G T : i.% q.O.X.I   ",
"                N b L D : i.% =.M X.! s ",
"              +.S Y ~ X.g 3.3.0 X.X.P s ",
"              w S ) &.&.U < t., ~ ~ B s ",
"            r q 0.&.:.:.&.X.: i., 3 3 8 ",
"          e K O ,.&.$.$.X.X.- 6.e.2 2 } ",
"        r j | y.: : : : l F W 6 + o     ",
"        r V 7.i.i.i.i.i.3.< / A B s     ",
"          X % % < 4.i.i.i.r.# B V       ",
"          . l X.U g 3.i.u.w.o C s       ",
"  <.,.,.-.1.6.- X.( X.9 5.8..           ",
"<. .m m U g 3.6.l ( Q A = 2..           ",
";...' ' X._ z > 2 3 Z B 5 &             ",
"  ` T ' _ T ~ # * 7 s s u r             ",
"  f ' E Y [ x 3                         ",
"    c { J J x B                         ",
"      d j k B s                         ",
"          h s y                         "
};
