/* XPM */
static char *d1b1b6cbd13b4bb1f68eedcbc4a5298e59wBcD15wEiNmtwi[] = {
/* columns rows colors chars-per-pixel */
"20 20 127 2 ",
"   c #1A7A3E",
".  c #197C3D",
"X  c #1E7E3D",
"o  c #17B21E",
"O  c #19952F",
"+  c #169D2C",
"@  c #199A2B",
"#  c #1B9A2F",
"$  c #198737",
"%  c #178A37",
"&  c #168F35",
"*  c #198F32",
"=  c #198A34",
"-  c #188E35",
";  c #1D8F34",
":  c #178539",
">  c #19813B",
",  c #1D833B",
"<  c #198438",
"1  c #1D8638",
"2  c #1D833C",
"3  c #178838",
"4  c #188838",
"5  c #1D8938",
"6  c #179332",
"7  c #169433",
"8  c #169134",
"9  c #189231",
"0  c #1C9233",
"q  c #1B9432",
"w  c #1B9135",
"e  c #1B9435",
"r  c #1E9635",
"t  c #159931",
"y  c #1B9830",
"u  c #1E9A32",
"i  c #1D9F31",
"p  c #219B2E",
"a  c #209E2E",
"s  c #21873B",
"d  c #22833D",
"f  c #26873D",
"g  c #218A3A",
"h  c #258A3B",
"j  c #208E38",
"k  c #298D3B",
"l  c #219333",
"z  c #209235",
"x  c #259236",
"c  c #209434",
"v  c #249435",
"b  c #229F32",
"n  c #239B35",
"m  c #279936",
"M  c #279F34",
"N  c #2C9937",
"B  c #2B9E35",
"V  c #2C9E35",
"C  c #269038",
"Z  c #299139",
"A  c #2D923A",
"S  c #289538",
"D  c #2C9539",
"F  c #309E37",
"G  c #31943A",
"H  c #319938",
"J  c #35993A",
"K  c #399D39",
"L  c #17A626",
"P  c #18A127",
"I  c #18A724",
"U  c #1CA427",
"Y  c #17A923",
"T  c #16AD23",
"R  c #17AB24",
"E  c #18AA21",
"W  c #18AD20",
"Q  c #16A02A",
"!  c #1BA22A",
"~  c #19A12E",
"^  c #1FA929",
"/  c #1BB022",
"(  c #1CB021",
")  c #22A72D",
"_  c #22AA2A",
"`  c #25A82A",
"'  c #26A92D",
"]  c #29AE28",
"[  c #23B523",
"{  c #23B324",
"}  c #27B524",
"|  c #28B325",
" . c #2FB52A",
".. c #30BC22",
"X. c #31B12A",
"o. c #33B32D",
"O. c #37B12F",
"+. c #37B42E",
"@. c #3CBC2A",
"#. c #27A331",
"$. c #2BA333",
"%. c #2CA331",
"&. c #2BA134",
"*. c #2FA335",
"=. c #2DAC30",
"-. c #30A531",
";. c #30A035",
":. c #34A336",
">. c #33A734",
",. c #38A735",
"<. c #37AC33",
"1. c #37A934",
"2. c #38A833",
"3. c #38AD30",
"4. c #38AA35",
"5. c #3CA935",
"6. c #3DA139",
"7. c #36B031",
"8. c #3FB432",
"9. c #40BA2E",
"0. c #41A837",
"q. c #45AF36",
"w. c #41A638",
"e. c #40B332",
"r. c #44B333",
"t. c #40B034",
"y. c #48B833",
/* pixels */
"8 . O * . 9 w ` l 3.V > : . > > < : 6.p ",
", & D [ >.o 2.o.5 w @ O 9 & < & & < 2 - ",
"K z = e.9.7 - T @ 9 Y < 9 L - < <   8   ",
"0.< R c ( . = @.} i = > . @ . J X J g 8 ",
"Z 6 - O > > 5 ;.D 0.8 > 8 > F G M K s . ",
"  3 @ - > y.1 : > Z > < 1.G =.Z h   j ,.",
"> < 1 e X #.5 V x _ K - ^ 0 # . > < e X ",
"  u K J f 9 E > 0.< B - T Y t < 8   :   ",
"J Z G 1.g = v 7 j % . > < F A O P . 4 j ",
"8.Q < 8 w.#.A > > 8   1 $.q.z - 7 > . 0.",
"V / { C F k b & > > 7 2 D W Q   3 : > 8 ",
"> O.+.t.&   & > f k y -.> & = y < 4 & > ",
"  5 M N O * < & &.8 ..k & = %.D > > . & ",
"< > > < t - . 7 < r Z c A ! e.; q = < < ",
". > t 4 4 > $ ! % w.m . < 5 d u s & H   ",
"j A : g d & 9 O > . & D ;.D *.6 > > r S ",
"z 5.. <.5 . I - U 0 > ] @.~ ; 7 = & < & ",
"> > & D D D 9 K  .;.8 I + O Y 7 E & > > ",
"= . g 1 4.5 z X.) | ' r.6 z L . # a 0 9 ",
". :.7.d 8   < @ < = 9 v @ O.w.8 > n J I "
};
