/* XPM */
static char * path_xpm[] = {
"40 40 893 2",
"  	c #159E2F",
". 	c #188639",
"+ 	c #1A7B3E",
"@ 	c #1A7C3D",
"# 	c #19863A",
"$ 	c #18A822",
"% 	c #199134",
"& 	c #1A7F3C",
"* 	c #1A7E3D",
"= 	c #1A7C3E",
"- 	c #1A803C",
"; 	c #1A813B",
"> 	c #188D36",
", 	c #199435",
"' 	c #1F8938",
") 	c #19B31F",
"! 	c #198B35",
"~ 	c #1A9B31",
"{ 	c #35BC25",
"] 	c #52BC34",
"^ 	c #51BA35",
"/ 	c #2AA730",
"( 	c #178939",
"_ 	c #197F3C",
": 	c #169333",
"< 	c #19843A",
"[ 	c #1A7D3D",
"} 	c #169932",
"| 	c #178F35",
"1 	c #18873A",
"2 	c #169632",
"3 	c #1C813C",
"4 	c #46AB38",
"5 	c #41A339",
"6 	c #1C9532",
"7 	c #19B31E",
"8 	c #149F2E",
"9 	c #1A7A3E",
"0 	c #169433",
"a 	c #188F32",
"b 	c #18A129",
"c 	c #189E2C",
"d 	c #168F35",
"e 	c #18823A",
"f 	c #19A02A",
"g 	c #19A825",
"h 	c #18972E",
"i 	c #2C9239",
"j 	c #3EAC33",
"k 	c #20B71E",
"l 	c #198C35",
"m 	c #329E36",
"n 	c #3EAF32",
"o 	c #30933A",
"p 	c #2D8F3B",
"q 	c #1F893A",
"r 	c #197F3D",
"s 	c #19833A",
"t 	c #19803C",
"u 	c #179134",
"v 	c #2A8C3C",
"w 	c #3C9E39",
"x 	c #39A236",
"y 	c #1D9134",
"z 	c #188A39",
"A 	c #18853A",
"B 	c #208F38",
"C 	c #26B423",
"D 	c #15AD23",
"E 	c #24A230",
"F 	c #3BA834",
"G 	c #1FB61E",
"H 	c #18B120",
"I 	c #2CA72F",
"J 	c #4CAF38",
"K 	c #4FBD33",
"L 	c #24B025",
"M 	c #1A8837",
"N 	c #2E8C3D",
"O 	c #319737",
"P 	c #199036",
"Q 	c #199C2E",
"R 	c #198339",
"S 	c #198F35",
"T 	c #19A02C",
"U 	c #199C2F",
"V 	c #19813B",
"W 	c #188A38",
"X 	c #198439",
"Y 	c #178C37",
"Z 	c #178F36",
"` 	c #1A7F3D",
" .	c #179036",
"..	c #178D37",
"+.	c #2E8C3C",
"@.	c #319837",
"#.	c #1C7C3E",
"$.	c #29893C",
"%.	c #249A35",
"&.	c #179533",
"*.	c #20823D",
"=.	c #3BA437",
"-.	c #37B829",
";.	c #21AD28",
">.	c #2CA92F",
",.	c #4EBD32",
"'.	c #25B324",
").	c #15A52A",
"!.	c #2BA432",
"~.	c #44B034",
"{.	c #3EB92D",
"].	c #1EA52D",
"^.	c #1A843A",
"/.	c #18982F",
"(.	c #15A02D",
"_.	c #18B41D",
":.	c #198E34",
"<.	c #199033",
"[.	c #18A922",
"}.	c #18B21F",
"|.	c #198638",
"1.	c #169633",
"2.	c #169B2F",
"3.	c #198837",
"4.	c #159A30",
"5.	c #19823B",
"6.	c #188C37",
"7.	c #159C2F",
"8.	c #179035",
"9.	c #198538",
"0.	c #1A823A",
"a.	c #169334",
"b.	c #45A838",
"c.	c #38AA33",
"d.	c #179433",
"e.	c #1A833B",
"f.	c #20833D",
"g.	c #4CB037",
"h.	c #37B12F",
"i.	c #2DAB2E",
"j.	c #4FBB34",
"k.	c #24A330",
"l.	c #14A02E",
"m.	c #179135",
"n.	c #1C9434",
"o.	c #1AB51C",
"p.	c #15A42B",
"q.	c #198A37",
"r.	c #199B2F",
"s.	c #17AB25",
"t.	c #159F2E",
"u.	c #18B51C",
"v.	c #199332",
"w.	c #199132",
"x.	c #18B021",
"y.	c #198737",
"z.	c #169931",
"A.	c #16AD23",
"B.	c #19A827",
"C.	c #169732",
"D.	c #19823C",
"E.	c #179235",
"F.	c #4DB337",
"G.	c #32943B",
"H.	c #1D813C",
"I.	c #198D34",
"J.	c #18AA23",
"K.	c #1E8A38",
"L.	c #48AB38",
"M.	c #36B728",
"N.	c #2DB823",
"O.	c #4BB634",
"P.	c #268C3A",
"Q.	c #159832",
"R.	c #188E35",
"S.	c #1A9334",
"T.	c #18B41B",
"U.	c #19A62B",
"V.	c #18AC22",
"W.	c #19A12A",
"X.	c #198438",
"Y.	c #18B21E",
"Z.	c #15A42A",
"`.	c #179C2E",
" +	c #198637",
".+	c #18A827",
"++	c #16AB24",
"@+	c #169832",
"#+	c #1B7B3E",
"$+	c #1E823C",
"%+	c #1B7D3E",
"&+	c #1E803D",
"*+	c #55BC36",
"=+	c #2F903B",
"-+	c #19793E",
";+	c #199131",
">+	c #18B51D",
",+	c #199A2F",
"'+	c #2B903A",
")+	c #23A729",
"!+	c #20BB1B",
"~+	c #2CB127",
"{+	c #1E8839",
"]+	c #19833B",
"^+	c #1A803B",
"/+	c #199334",
"(+	c #1EB71B",
"_+	c #45B830",
":+	c #23B81E",
"<+	c #16A926",
"[+	c #159632",
"}+	c #199034",
"|+	c #169C2F",
"1+	c #188B38",
"2+	c #19823A",
"3+	c #18AB25",
"4+	c #19A02B",
"5+	c #19843B",
"6+	c #24853D",
"7+	c #45A839",
"8+	c #26853D",
"9+	c #20813D",
"0+	c #46A939",
"a+	c #258E39",
"b+	c #19813C",
"c+	c #19853A",
"d+	c #169533",
"e+	c #54BD35",
"f+	c #2D9F35",
"g+	c #18833B",
"h+	c #18B61C",
"i+	c #16A02B",
"j+	c #18843A",
"k+	c #189C2C",
"l+	c #17A429",
"m+	c #27A131",
"n+	c #3EBC2A",
"o+	c #55C033",
"p+	c #43BD2B",
"q+	c #2EAF2B",
"r+	c #23A62F",
"s+	c #38AF31",
"t+	c #1B7F3D",
"u+	c #188838",
"v+	c #198937",
"w+	c #1F803D",
"x+	c #33953A",
"y+	c #3DA039",
"z+	c #2D8E3B",
"A+	c #197A3E",
"B+	c #23853D",
"C+	c #52B836",
"D+	c #178C36",
"E+	c #48AE37",
"F+	c #279E34",
"G+	c #199133",
"H+	c #19A926",
"I+	c #169831",
"J+	c #189035",
"K+	c #1A823B",
"L+	c #179234",
"M+	c #2C9F34",
"N+	c #48AF36",
"O+	c #4AB734",
"P+	c #4AB136",
"Q+	c #36A435",
"R+	c #32A633",
"S+	c #1D853B",
"T+	c #1F853C",
"U+	c #2C8B3C",
"V+	c #1B7C3E",
"W+	c #51B737",
"X+	c #3DA637",
"Y+	c #187E3D",
"Z+	c #18863A",
"`+	c #187A3E",
" @	c #19A627",
".@	c #1A9730",
"+@	c #1D7D3E",
"@@	c #25853D",
"#@	c #189D30",
"$@	c #187E3C",
"%@	c #139B30",
"&@	c #17823A",
"*@	c #18793E",
"=@	c #30923B",
"-@	c #4BB137",
";@	c #199C30",
">@	c #188739",
",@	c #16A12D",
"'@	c #20A22F",
")@	c #1C873A",
"!@	c #1F9436",
"~@	c #30AC30",
"{@	c #47B135",
"]@	c #23863C",
"^@	c #52B737",
"/@	c #3CAF32",
"(@	c #158F36",
"_@	c #22833D",
":@	c #49AE38",
"<@	c #28893C",
"[@	c #197D3D",
"}@	c #1E833C",
"|@	c #27873C",
"1@	c #19A426",
"2@	c #189234",
"3@	c #169234",
"4@	c #47AB38",
"5@	c #24A42F",
"6@	c #159135",
"7@	c #159C30",
"8@	c #25863C",
"9@	c #159831",
"0@	c #1FA42E",
"a@	c #41B233",
"b@	c #2C8F3B",
"c@	c #379E38",
"d@	c #43B532",
"e@	c #219E31",
"f@	c #52B837",
"g@	c #3EA537",
"h@	c #1C7D3E",
"i@	c #26863D",
"j@	c #1D7E3E",
"k@	c #168739",
"l@	c #2DA433",
"m@	c #4DB436",
"n@	c #18AE1F",
"o@	c #16A52A",
"p@	c #178D36",
"q@	c #27883C",
"r@	c #4FB536",
"s@	c #399E38",
"t@	c #1A823C",
"u@	c #178839",
"v@	c #2FA732",
"w@	c #1E7F3E",
"x@	c #258B3A",
"y@	c #49B136",
"z@	c #31913C",
"A@	c #3DA139",
"B@	c #49B733",
"C@	c #139930",
"D@	c #27A032",
"E@	c #209336",
"F@	c #38AB32",
"G@	c #41A837",
"H@	c #2D8C3C",
"I@	c #1A7E3C",
"J@	c #19962E",
"K@	c #16A12B",
"L@	c #20843C",
"M@	c #35A734",
"N@	c #3DA338",
"O@	c #19803B",
"P@	c #1F8E38",
"Q@	c #369939",
"R@	c #1E7F3D",
"S@	c #24AF29",
"T@	c #39B131",
"U@	c #379A3A",
"V@	c #189033",
"W@	c #1E9C2E",
"X@	c #33A833",
"Y@	c #268B3B",
"Z@	c #2C9F32",
"`@	c #35B12C",
" #	c #179633",
".#	c #2CA332",
"+#	c #32933B",
"@#	c #228C3A",
"##	c #33923C",
"$#	c #1B7E3D",
"%#	c #289337",
"&#	c #2F8E3C",
"*#	c #18813B",
"=#	c #149A30",
"-#	c #189533",
";#	c #189334",
">#	c #1C9A33",
",#	c #44B333",
"'#	c #379D39",
")#	c #2A9D33",
"!#	c #15A529",
"~#	c #19A22D",
"{#	c #2E9A38",
"]#	c #168E36",
"^#	c #17A12A",
"/#	c #18B71B",
"(#	c #16A229",
"_#	c #189632",
":#	c #18A228",
"<#	c #17A925",
"[#	c #188D37",
"}#	c #188B37",
"|#	c #188839",
"1#	c #178E36",
"2#	c #2DA831",
"3#	c #50B736",
"4#	c #21833D",
"5#	c #1F803E",
"6#	c #40A439",
"7#	c #18803C",
"8#	c #18AC21",
"9#	c #18B31C",
"0#	c #19A728",
"a#	c #199832",
"b#	c #49B435",
"c#	c #168838",
"d#	c #1A9931",
"e#	c #4BB435",
"f#	c #28A630",
"g#	c #178B38",
"h#	c #17A626",
"i#	c #17AA24",
"j#	c #169D2E",
"k#	c #198639",
"l#	c #188C36",
"m#	c #169434",
"n#	c #189036",
"o#	c #2DAA30",
"p#	c #52B936",
"q#	c #27893C",
"r#	c #47AA39",
"s#	c #3A9D39",
"t#	c #23833D",
"u#	c #1A853A",
"v#	c #199D2B",
"w#	c #18A828",
"x#	c #197E3C",
"y#	c #1C823C",
"z#	c #49AF37",
"A#	c #42A439",
"B#	c #187C3D",
"C#	c #24873C",
"D#	c #199032",
"E#	c #17A527",
"F#	c #18B31F",
"G#	c #1A9C2E",
"H#	c #1B883A",
"I#	c #159D2F",
"J#	c #169534",
"K#	c #178E37",
"L#	c #20803D",
"M#	c #3CA238",
"N#	c #359C38",
"O#	c #329939",
"P#	c #278A3C",
"Q#	c #4BAF38",
"R#	c #37AA33",
"S#	c #189135",
"T#	c #179233",
"U#	c #248C3A",
"V#	c #239238",
"W#	c #179034",
"X#	c #198A36",
"Y#	c #198738",
"Z#	c #349B38",
"`#	c #41A737",
" $	c #18A626",
".$	c #18B01F",
"+$	c #18A42A",
"@$	c #188A37",
"#$	c #188D35",
"$$	c #3DA03A",
"%$	c #3CAB34",
"&$	c #309639",
"*$	c #26893C",
"=$	c #3E9F3A",
"-$	c #21863C",
";$	c #37A535",
">$	c #2CA133",
",$	c #249237",
"'$	c #379C39",
")$	c #1E8F38",
"!$	c #2A9536",
"~$	c #34A036",
"{$	c #159B30",
"]$	c #197C3D",
"^$	c #1A8A39",
"/$	c #349A39",
"($	c #4CB137",
"_$	c #18B41F",
":$	c #18AD22",
"<$	c #199A30",
"[$	c #188938",
"}$	c #239F31",
"|$	c #3B9E39",
"1$	c #55BF34",
"2$	c #2BAA2F",
"3$	c #15992F",
"4$	c #168839",
"5$	c #149732",
"6$	c #31903C",
"7$	c #23A72E",
"8$	c #329839",
"9$	c #399C39",
"0$	c #39A137",
"a$	c #219435",
"b$	c #319739",
"c$	c #1B9F31",
"d$	c #4BB933",
"e$	c #4EB437",
"f$	c #3AA038",
"g$	c #168B37",
"h$	c #18A12A",
"i$	c #19972F",
"j$	c #178E35",
"k$	c #17843A",
"l$	c #34A534",
"m$	c #56BF35",
"n$	c #55BE34",
"o$	c #2BAA30",
"p$	c #15AB24",
"q$	c #17AD22",
"r$	c #30903C",
"s$	c #4FBC34",
"t$	c #22A52F",
"u$	c #4FB834",
"v$	c #1C7F3D",
"w$	c #2F923A",
"x$	c #4FB835",
"y$	c #21A530",
"z$	c #4AB833",
"A$	c #3B9F38",
"B$	c #1D873A",
"C$	c #159931",
"D$	c #197B3E",
"E$	c #35983A",
"F$	c #55BC35",
"G$	c #2AA631",
"H$	c #15AC24",
"I$	c #19B120",
"J$	c #1BA62B",
"K$	c #18B11F",
"L$	c #1E9335",
"M$	c #2E8F3B",
"N$	c #4CB436",
"O$	c #25883C",
"P$	c #4EB337",
"Q$	c #38AE32",
"R$	c #159334",
"S$	c #2E913B",
"T$	c #4EB636",
"U$	c #228A3A",
"V$	c #1BA927",
"W$	c #1AB81B",
"X$	c #17B021",
"Y$	c #159732",
"Z$	c #198B38",
"`$	c #19A02E",
" %	c #2D903B",
".%	c #1F883A",
"+%	c #27B822",
"@%	c #41B72F",
"#%	c #20B81D",
"$%	c #3EB230",
"%%	c #1E883A",
"&%	c #29A332",
"*%	c #1D833B",
"=%	c #2C8E3B",
"-%	c #239735",
";%	c #187F3C",
">%	c #18823B",
",%	c #1E893A",
"'%	c #29A432",
")%	c #17B11F",
"!%	c #19AD22",
"~%	c #178838",
"{%	c #31AB2E",
"]%	c #49BE2D",
"^%	c #53BF33",
"/%	c #24B129",
"(%	c #4CBC31",
"_%	c #38A536",
":%	c #198C38",
"<%	c #34963B",
"[%	c #1C7E3E",
"}%	c #15A428",
"|%	c #31A830",
"1%	c #349C38",
"2%	c #198939",
"3%	c #179C2F",
"4%	c #17A02D",
"5%	c #178C35",
"6%	c #32A733",
"7%	c #48B933",
"8%	c #53BD34",
"9%	c #22A830",
"0%	c #37A934",
"a%	c #189433",
"b%	c #2B913A",
"c%	c #359D37",
"d%	c #1B8A38",
"e%	c #1B9430",
"f%	c #29AF27",
"g%	c #3CB22F",
"h%	c #359939",
"i%	c #198539",
"j%	c #2AA233",
"k%	c #1AA12E",
"l%	c #188E37",
"m%	c #2CA632",
"n%	c #4DB635",
"o%	c #47B334",
"p%	c #369A39",
"q%	c #199035",
"r%	c #18AB24",
"s%	c #198D35",
"t%	c #43B433",
"u%	c #3EA239",
"v%	c #1FB91C",
"w%	c #47BF2C",
"x%	c #3F9F3A",
"y%	c #1C7E3D",
"z%	c #199B31",
"A%	c #2D8D3C",
"B%	c #4BB037",
"C%	c #1F843C",
"D%	c #22883B",
"E%	c #199733",
"F%	c #208C3A",
"G%	c #1A8D36",
"H%	c #18A923",
"I%	c #1DA030",
"J%	c #1C9137",
"K%	c #1EB51E",
"L%	c #44BA2E",
"M%	c #3B9B3A",
"N%	c #1A8838",
"O%	c #1A9833",
"P%	c #199C2C",
"Q%	c #2AB425",
"R%	c #49AE37",
"S%	c #2C8E3C",
"T%	c #1B8439",
"U%	c #169532",
"V%	c #19873A",
"W%	c #159A31",
"X%	c #15A629",
"Y%	c #139E2E",
"Z%	c #1A8F36",
"`%	c #2A903A",
" &	c #239237",
".&	c #27A231",
"+&	c #46B234",
"@&	c #20863B",
"#&	c #199E2E",
"$&	c #16A925",
"%&	c #2DAE2B",
"&&	c #50B637",
"*&	c #28873D",
"=&	c #17A42A",
"-&	c #17A22A",
";&	c #179334",
">&	c #178B37",
",&	c #1A8639",
"'&	c #19982D",
")&	c #289139",
"!&	c #39AE32",
"~&	c #3B9F39",
"{&	c #24883C",
"]&	c #188439",
"^&	c #249138",
"/&	c #36983A",
"(&	c #20853B",
"_&	c #16A02C",
":&	c #29AE2C",
"<&	c #3BAD33",
"[&	c #33953B",
"}&	c #1E7E3E",
"|&	c #38B42D",
"1&	c #2DA631",
"2&	c #188F35",
"3&	c #169B30",
"4&	c #35973A",
"5&	c #55BD35",
"6&	c #298E3B",
"7&	c #33A435",
"8&	c #3FA239",
"9&	c #197C3E",
"0&	c #359D38",
"a&	c #169C30",
"b&	c #2B9439",
"c&	c #14A02D",
"d&	c #1A8E36",
"e&	c #19A724",
"f&	c #168C37",
"g&	c #179E2F",
"h&	c #22863C",
"i&	c #189732",
"j&	c #41B333",
"k&	c #3FA638",
"l&	c #21813D",
"m&	c #178639",
"n&	c #17803C",
"o&	c #18AB23",
"p&	c #26883C",
"q&	c #168639",
"r&	c #129B30",
"s&	c #177E3C",
"t&	c #379B3A",
"u&	c #42AD35",
"v&	c #219C33",
"w&	c #3BAE32",
"x&	c #3E9F39",
"y&	c #1C9D31",
"z&	c #41AF35",
"A&	c #53B837",
"B&	c #40A538",
"C&	c #1B823C",
"D&	c #36AA34",
"E&	c #19982E",
"F&	c #17AB27",
"G&	c #188939",
"H&	c #149234",
"I&	c #51B935",
"J&	c #2BA332",
"K&	c #3AAF33",
"L&	c #4AB137",
"M&	c #17813C",
"N&	c #19AA27",
"O&	c #19992F",
"P&	c #22853C",
"Q&	c #239038",
"R&	c #169A31",
"S&	c #1B9435",
"T&	c #31A833",
"U&	c #4CBB33",
"V&	c #44A938",
"W&	c #1E813D",
"X&	c #30A335",
"Y&	c #35AF31",
"Z&	c #34A435",
"`&	c #199A2D",
" *	c #17B221",
".*	c #17A229",
"+*	c #189A2F",
"@*	c #178937",
"#*	c #2FAA2E",
"$*	c #45BE2C",
"%*	c #55C133",
"&*	c #3DBC2A",
"**	c #23A92C",
"=*	c #28A92F",
"-*	c #199B2D",
";*	c #1A8D35",
">*	c #139532",
",*	c #37A734",
"'*	c #389D38",
")*	c #1A873A",
"!*	c #1F823D",
"~*	c #4DB038",
"{*	c #37AD32",
"]*	c #17AF23",
"^*	c #1C9534",
"/*	c #33963A",
"(*	c #1EB120",
"_*	c #28BC1D",
":*	c #2BA42F",
"<*	c #18A02C",
"[*	c #29B822",
"}*	c #44B72F",
"|*	c #1DB61D",
"1*	c #169F2D",
"2*	c #199533",
"3*	c #188C38",
"4*	c #1A8C37",
"5*	c #1A8939",
"6*	c #188638",
"7*	c #32A433",
"8*	c #199534",
"9*	c #24843D",
"0*	c #1B813C",
"a*	c #18A12B",
"b*	c #50B836",
"c*	c #28B622",
"d*	c #3CBB28",
"e*	c #43A938",
"f*	c #1E853B",
"g*	c #19A12C",
"h*	c #18AA22",
"i*	c #199232",
"j*	c #199233",
"k*	c #17B41D",
"l*	c #15AA26",
"m*	c #178F34",
"n*	c #2D913A",
"o*	c #54BA36",
"p*	c #53B936",
"q*	c #1A813C",
"r*	c #25863D",
"s*	c #26AA2E",
"t*	c #3DB130",
"u*	c #1A9F2F",
"v*	c #1A863A",
"w*	c #1CA22C",
"x*	c #19B020",
"y*	c #19A628",
"z*	c #16A728",
"A*	c #15A32B",
"B*	c #16AC24",
"C*	c #1A833A",
"D*	c #2CA233",
"E*	c #51B836",
"F*	c #199D30",
"G*	c #169135",
"H*	c #2E8D3C",
"I*	c #42AF34",
"J*	c #2DBA23",
"K*	c #19A727",
"L*	c #3CAF31",
"M*	c #43BB2D",
"N*	c #1CB41F",
"O*	c #1AA32D",
"P*	c #3AA935",
"Q*	c #4BBA32",
"R*	c #3AB72E",
"S*	c #1A8539",
"T*	c #19AF20",
"U*	c #1A8738",
"V*	c #19992D",
"W*	c #18AE23",
"X*	c #19992E",
"Y*	c #1E8D39",
"Z*	c #34983A",
"`*	c #25843D",
" =	c #249936",
".=	c #3AA934",
"+=	c #21853C",
"@=	c #2A9239",
"#=	c #3BA734",
"$=	c #1FB81D",
"%=	c #17A727",
"&=	c #2EA233",
"*=	c #33AD2D",
"==	c #1AB91A",
"-=	c #1BAE23",
";=	c #35A633",
">=	c #51B537",
",=	c #43B930",
"'=	c #1AA926",
")=	c #1B833B",
"!=	c #36953C",
"~=	c #299436",
"{=	c #189930",
"]=	c #1B9334",
"^=	c #39B72A",
"/=	c #208B38",
"(=	c #17A627",
"_=	c #2A9538",
":=	c #299A36",
"<=	c #23A62E",
"[=	c #32923B",
"}=	c #139A30",
"|=	c #189430",
"1=	c #189630",
"2=	c #188A36",
"3=	c #19A129",
"4=	c #19A229",
"5=	c #169033",
"6=	c #329938",
"7=	c #34AD2E",
"8=	c #1B8937",
"9=	c #3AAE30",
"0=	c #3AA835",
"a=	c #36973B",
"b=	c #30943A",
"c=	c #1D8D38",
"d=	c #1B9F30",
"e=	c #40A637",
"f=	c #399C3A",
"g=	c #2A9438",
"h=	c #16A22B",
"i=	c #18B819",
"j=	c #187B3D",
"k=	c #3FB233",
"l=	c #24A62E",
"m=	c #49B634",
"n=	c #32913C",
"o=	c #18AC20",
"p=	c #1A8739",
"q=	c #1A8C38",
"r=	c #1C9431",
"s=	c #198936",
"t=	c #1BAA26",
"u=	c #3CBB2A",
"v=	c #4CB834",
"w=	c #23A42F",
"x=	c #20853C",
"y=	c #40A239",
"z=	c #179530",
"  . + @ # $ % & * = - ; > , ' ) ! ~ { ] ^ / ( + _ : < + + [ + } | 1 2 3 4 5 6 7 ",
"8 . 9 < 0 a b c d e f g h i j k l m n o p q r 9 + s * + t u _ < ; r < [ v w x y ",
"z _ A | B x C D E F G H I J K L M N O P Q R S T U V W X * Y Z ` X  ...* + +.@.P ",
"#.$.%.&.*.=.-.;.>.,.'.).!.~.{.].s ^./.(._.:.<.[.}.|.1.2.3.V 4.5.6.7.8.` 9.0.^.a.",
"$.b.c.d.e.f.g.h.i.j.k.l.m.n.o.p.q.r.s.t.u.v.= w.x.y.z.A.B.t C.D.W E.+ = 0  .+ = ",
"F.G.H.I.J.K.L.M.N.O.P.Q.R.S.T.U.V.W.X.X Y.Z.1 3.`. +.+++@+#+$+%+= * + &+d.Z 9 [ ",
"*+=+-+;+>+,+'+)+!+~+{+]+^+/+(+_+:+<+1.[+}+|+1+& ]+2+3+4+5+6+7+8++ + 9+0+a+b+c+d+",
"e+f+g+;+h+i+j+l k+l+^.+ < m+n+o+p+q+r+s+t+u+5.+ + + <.v++ w+x+y+z+A+B+C+v g+| D+",
"E+F+..G+H+I+J+K+b+L+^+b+Y M+N+O+P+Q+R+e+S+]+* [ D.b+[ _ T+U+V+W+X+Y+B+C+v Z+> [ ",
"`+9  .d+@ M  @.@V +@@@#@m.9 $@%@&@*@=@-@;@8 1+>@,@'@)@!@~@{@]@^@/@(@_@:@<@[@}@|@",
"+ 9  .d+e.1@v.2@3@@@4@5@6@9 t 7@s 9 &+8@< 9@1+>@0@a@b@c@d@e@b+f@g@$@h@i@j@k@l@m@",
"+ + ` t ^.n@o@p@t q@r@] s@A+@ t@@ u@v@m@w@- * * x@y@z@A@B@C@V D@E@+ + = E.F@G@H@",
"[ u+5.+ I@J@K@Y + L@M@N@z+O@P@Q@R@d.S@T@U@_@X V@W@X@Y@Z@`@D+I@..c+V u+*  #.#+#+@",
"[ ..1+@###$#..%#&#*#=#-#/+;#>#,#'#)#!#~#e+{#]#^#/#(#_#:#<#< [ + V [#Z * }#|#A++ ",
"+ 9 1#2#3#4#5#A@6#7#0 8#9#0#s a#b#5 c#d#e#f#g#;+h+h#Y.i#j#4.k#@ l#m#+ + & [ + + ",
"+ #.n#o#p#q#r#s#t#= * u#v#w#x#y#z#A#B#& C#a#z D#>+E#F#G#H#l.I#]+p@J#9 = u K#+ + ",
"L#M#N#O#C+P#Q#R#S#V++ m.T#S d+d.U#V#W#[ + & * V X#Y#X#Z#`#e 5. $.$+$[ + 5.@$#$$#",
"$$%$&$*$=$-$;$>$,$'$)$Z !$~$7.m.t 1+{$6.= + 5+A ]$^$/$($g.B#1 _$:$<$[$[ + g#}$|$",
"1$2$3$<.4$[ 5$Y 6$K 7$8$9$0$| [ + 1+I#a.= + u+a$b$c$d$e$f$g$m.h$i$Y j$* + k$l$m$",
"n$o$p$q$7@s C.6.r$s$t$u$A@v$[ [ + 1+0 _ = + ]$w$x$y$z$A$B$C$]+& > m#@ [ + D$E$F$",
"^ G$H$I$J$K$L$j@M$N$O$P$Q$R$& {$2+z u * 7@|#D$S$T$U$V$W$X$Y$V + }#E.I@@+< @ Z$`$",
" %.%l++%@%#%$%=+%%&%*%=%-%m#& 7.s ;%>%[ 8 9@k$,%'%*%2.)%!%]+@ 9 V 5.9 A 8.W 1+l.",
"]$~%{%]%^%/%(%_%:%>@[ D$Y J#@ |#* 6$<%[%[#}%|%1%2%[ # 3%4%I@Y  .A b+6.* d+ .b+z ",
"[ 5%6%7%8%9%d$0%a%I.& + . ..9 c+b%9$c%d%e%f%g%h%$#i%[ 8.2 }@j%k%8.>@C.t 1#6.9 + ",
"+ + l%m%n%y$o%p%q%r%s%@ [ * _ #@t%u%g#t.v%w%x%y%5.3@]+L+z%A%B%m+1## d+r = [ _ _ ",
"+ = _ C%D%E%F%G%I+:.H%u#Y#Y & I#I%J%W l.K%L%M%N%O%s & P%Q%R%S%T%^+I@t * + |#C$U%",
"[ 1#V%+ = 5.[@m.I#W%X%5+V b+_ 7@Y b+g#Y%Z%`% &.&+&@&#&$&%&&&*&=&-&[#[ ;&t 1+@+>@",
"* 2 1++ * >&b+m.{$6.Y * + ,&'&t.s 9 )&!&~&{&]&^&/&(&_&:&<&[&}&|&1&A & 7@s 5.]++ ",
"[ 2&Z+[ c+2 c+m.1.+ + b+r S.9#3&[$Y+4&5&o%6&D$* t@I@d 7&8&9&7#~.0&A+_ a&b&*&D$+ ",
"+ + + >@c&9@]+> 3@9 9 7@m.d&e&s%d.f&=@-@g&. 9 >@7.t 9 *.h&>@{$%@p@+ * i&j&k&l&#+",
"9 A+*@m&I#k#= x#n&+ 9 7@m.[ ! o&I.r w+p&  . -+q&r&s&-+t&u&%@c&Z+I@+ 9 b+v&w&x&}&",
"y&z&A&B&C&* ;&D&b.7#1.V%E&F&2 2%* G&8.[ 5+H&%$I&] n%J&K&L&M&b+N&O&# a._ t P&Q&R&",
"S&T&U&V&h@W&X&Y&Z&x#> t `& *C$t w..*+** [ @*#*$*%*&***=*Z&[@[$-*;*b+| D+[ 5.D+8.",
"* >*,*'*)*!*~*{*C.9 9 = `&]*^*/*(*_*:*t+V%[ <*[*}*|*1*m#: 2*t.3*3*4*O@7@s 3*a.[ ",
"* u 5*6*0 B$V&7*8*9*B+0*'&a*C#b*c*d*e*f*7@i%g*I$p.h*i*0.j*k*(.8 l*0#V 7@s |#m*[ ",
"= * [ [ 5.L+U$$+n*o*p*m+L+q*r*I&s*t*t%u*  v*w*x*  X#y*z*A*K$q.7@B*w#V 7.s [ & + ",
"a.s + + @ C*[ v+D*E*[&F*G*H*I*J*K*L*M*N*O*P*Q*R*g&_ S*d.p.T*U*5.V*w#|.W*X#q%X*& ",
" ...b+_ Y*Z*`*A  =.=+=..| @=#=$=%=&=*===-=;=>=,='=)=!=~=;&{=^++ q.r.]=^=/=;&(=r.",
"@ Y _=:=<=O+[=9 b+}=5.+ ]+d.|=b 1=>@2=3=4=5=6=7=) 8=9=0=a=b=c=1+5.>@d=e=f=g=h=i=",
"+ j=5 k=l=m=n=+ D.{$5.+ + /+o=p=* @ [ & ; U%q=r=}.s=t=u=5&v=w=8 | |#I+x=E+y=z=/#"};
