/* XPM */
static char *e3e154eb8e7041ffef4c39134b61d5efrV6DaMN0UhLDZtm6[] = {
/* columns rows colors chars-per-pixel */
"20 20 73 1 ",
"  c None",
". c #331726",
"X c #311827",
"o c #321826",
"O c #232A32",
"+ c #242A32",
"@ c #242B32",
"# c #252B32",
"$ c #242B33",
"% c #262C36",
"& c #272F37",
"* c #353C46",
"= c #333D4A",
"- c #383F48",
"; c #383E49",
": c #36404E",
"> c #37404E",
", c #37414E",
"< c #3B414C",
"1 c #3A4453",
"2 c #3D4857",
"3 c #444F5F",
"4 c #454F60",
"5 c #465062",
"6 c #475163",
"7 c #4B5568",
"8 c #4C5569",
"9 c #50596E",
"0 c #515A6F",
"q c #525B70",
"w c #525B71",
"e c #555E73",
"r c #555D74",
"t c #555E74",
"y c #576076",
"u c #576077",
"i c #596279",
"p c #5A627A",
"a c #5B647C",
"s c #5C647C",
"d c #5C647D",
"f c #5E667F",
"g c #5E677F",
"h c #606982",
"j c #616982",
"k c #636B85",
"l c #676F89",
"z c #686F89",
"x c #68708A",
"c c #6C748E",
"v c #6D748E",
"b c #707892",
"n c #727993",
"m c #767D97",
"M c #7A819B",
"N c #7B829C",
"B c #7F86A0",
"V c #848BA5",
"C c #888FA9",
"Z c #898FA9",
"A c #8C92A7",
"S c #8890AA",
"D c #8F95AC",
"F c #8D94AE",
"G c #9298B2",
"H c #9299B3",
"J c #969DB7",
"K c #9BA1BB",
"L c #9DA3BA",
"P c #9DA3BB",
"I c #A0A7BF",
"U c #A5ACC4",
"Y c #AEB4CE",
/* pixels */
"   $$$$$$$$$$$$$O   ",
"   <************;   ",
"  $AYYYYYYYYYYYYP$  ",
"o$AUYFVYYYmvvvVYYP;$",
".$PYFvBYYYvkkkvVYY*$",
".$PSvkBYYYvCGMkxVY*$",
".$PmNmnCCClKYCkkvY*$",
".$PmBMkkkkkVGMkkvY*$",
".$PmkdidkkkkkklnvY*$",
".$Fmk926kvvkkkNJvI*$",
".$1ik926vYYmkkkkd2&$",
".$1ikhddvYYmkkkkd2%$",
".$1iwtkkxmmzkkkd42%$",
".$1iiakkkkk98ukhw2%$",
".$1iki9ekkk629aed2%$",
".$1ik926kkkw7ui9d2%$",
"o$:9i723iiiiiiiit:%$",
"  $=111111111111:$  ",
"   $$$$$$$$$$$$$O   ",
"   $$$$$$$$$$$$$O   "
};
