/* XPM */
static char * wall_xpm[] = {
"40 40 342 2",
"  	c #159D2F",
". 	c #188639",
"+ 	c #1A7A3E",
"@ 	c #1A7B3E",
"# 	c #19853A",
"$ 	c #19A923",
"% 	c #20702E",
"& 	c #242A33",
"* 	c #242B33",
"= 	c #214E32",
"- 	c #178A32",
"; 	c #1C813C",
"> 	c #46AB38",
", 	c #41A339",
"' 	c #1C9431",
") 	c #19B21E",
"! 	c #149E2F",
"~ 	c #1A793E",
"{ 	c #19833A",
"] 	c #169433",
"^ 	c #179132",
"/ 	c #206331",
"( 	c #214535",
"_ 	c #1A7839",
": 	c #1A7C3D",
"< 	c #2A8B3C",
"[ 	c #3C9E39",
"} 	c #38A135",
"| 	c #1D8F34",
"1 	c #178B38",
"2 	c #19803C",
"3 	c #18863A",
"4 	c #178E36",
"5 	c #1F9037",
"6 	c #39A436",
"7 	c #2B7032",
"8 	c #232932",
"9 	c #232A32",
"0 	c #214933",
"a 	c #197F36",
"b 	c #1A7D3D",
"c 	c #2D8B3C",
"d 	c #319938",
"e 	c #1A9036",
"f 	c #1C7D3E",
"g 	c #239B34",
"h 	c #169234",
"i 	c #22743B",
"j 	c #3C9334",
"k 	c #45734F",
"l 	c #494F5C",
"m 	c #405E55",
"n 	c #21793A",
"o 	c #1B6D3A",
"p 	c #19803B",
"q 	c #19813B",
"r 	c #1A843A",
"s 	c #169134",
"t 	c #29893C",
"u 	c #45A938",
"v 	c #38AA33",
"w 	c #179133",
"x 	c #224434",
"y 	c #1C2B2A",
"z 	c #8C92A7",
"A 	c #ACB2CC",
"B 	c #939AB0",
"C 	c #39424A",
"D 	c #233432",
"E 	c #188630",
"F 	c #179036",
"G 	c #489E34",
"H 	c #328738",
"I 	c #1E763B",
"J 	c #1C8033",
"K 	c #345943",
"L 	c #353B46",
"M 	c #9096AC",
"N 	c #AEB4CE",
"O 	c #A6ACC6",
"P 	c #A5ABC5",
"Q 	c #AAB0CA",
"R 	c #989EB5",
"S 	c #4B515E",
"T 	c #39434A",
"U 	c #1D7C33",
"V 	c #198435",
"W 	c #1B703D",
"X 	c #3E4F28",
"Y 	c #31402C",
"Z 	c #233F34",
"` 	c #284C39",
" .	c #7C8995",
"..	c #959BB2",
"+.	c #A5ABC4",
"@.	c #7E859E",
"#.	c #7A819A",
"$.	c #99A0B9",
"%.	c #AFB5CF",
"&.	c #ADB3CD",
"*.	c #8389A3",
"=.	c #777D97",
"-.	c #777E97",
";.	c #A8AEC7",
">.	c #9399B0",
",.	c #3F5952",
"'.	c #224136",
").	c #224236",
"!.	c #351324",
"~.	c #311927",
"{.	c #262831",
"].	c #2C323B",
"^.	c #A2A8C2",
"/.	c #6E758F",
"(.	c #686F89",
"_.	c #939AB3",
":.	c #757D96",
"<.	c #626A84",
"[.	c #636B85",
"}.	c #9399B3",
"|.	c #351424",
"1.	c #311A28",
"2.	c #9095AC",
"3.	c #AEB4CF",
"4.	c #A4AAC4",
"5.	c #848BA5",
"6.	c #8087A1",
"7.	c #676F89",
"8.	c #68708A",
"9.	c #767D97",
"0.	c #656D87",
"a.	c #788099",
"b.	c #979DB7",
"c.	c #9EA4BD",
"d.	c #616983",
"e.	c #616A84",
"f.	c #9EA4BE",
"g.	c #878EA8",
"h.	c #787F98",
"i.	c #8289A2",
"j.	c #8289A3",
"k.	c #7C839D",
"l.	c #676F88",
"m.	c #999FB9",
"n.	c #AFB5D0",
"o.	c #888EA8",
"p.	c #666E88",
"q.	c #949BB4",
"r.	c #9FA6BF",
"s.	c #868CA5",
"t.	c #666D87",
"u.	c #6F7690",
"v.	c #6C748E",
"w.	c #646C86",
"x.	c #8E95AF",
"y.	c #A7ADC7",
"z.	c #747B94",
"A.	c #979EB7",
"B.	c #A3A9C3",
"C.	c #6E768F",
"D.	c #A4ABC5",
"E.	c #9AA0BA",
"F.	c #6B728C",
"G.	c #666E87",
"H.	c #7A819B",
"I.	c #B0B6D0",
"J.	c #989EB8",
"K.	c #777E98",
"L.	c #727993",
"M.	c #616982",
"N.	c #586178",
"O.	c #576076",
"P.	c #5C647C",
"Q.	c #787F99",
"R.	c #868DA6",
"S.	c #767D96",
"T.	c #5E667E",
"U.	c #424C5D",
"V.	c #3C4756",
"W.	c #3C4755",
"X.	c #4E576B",
"Y.	c #B0B6D1",
"Z.	c #8F96AF",
"`.	c #2A3139",
" +	c #7D8398",
".+	c #969CB6",
"++	c #798099",
"@+	c #434D5D",
"#+	c #3D4857",
"$+	c #4E576C",
"%+	c #727A94",
"&+	c #6A728C",
"*+	c #8990AA",
"=+	c #717892",
"-+	c #9096B0",
";+	c #424854",
">+	c #252C34",
",+	c #3B4452",
"'+	c #414C5B",
")+	c #3D4856",
"!+	c #858CA5",
"~+	c #465061",
"{+	c #2B333D",
"]+	c #38414F",
"^+	c #5F677F",
"/+	c #475163",
"(+	c #424D5D",
"_+	c #515A6F",
":+	c #5B647B",
"<+	c #2A323C",
"[+	c #5C657D",
"}+	c #5E6780",
"|+	c #636B84",
"1+	c #5B637B",
"2+	c #5E667F",
"3+	c #6B738D",
"4+	c #858CA6",
"5+	c #717992",
"6+	c #5A627A",
"7+	c #4E586C",
"8+	c #4A5467",
"9+	c #3F4A59",
"0+	c #5A637A",
"a+	c #3B4655",
"b+	c #424C5C",
"c+	c #5F6780",
"d+	c #535B71",
"e+	c #5D667E",
"f+	c #4C5669",
"g+	c #4F586D",
"h+	c #606982",
"i+	c #555E74",
"j+	c #576077",
"k+	c #616A83",
"l+	c #596279",
"m+	c #4D576A",
"n+	c #495366",
"o+	c #636B86",
"p+	c #3F4A5A",
"q+	c #454F60",
"r+	c #5F6781",
"s+	c #606881",
"t+	c #646B86",
"u+	c #5F6880",
"v+	c #485163",
"w+	c #434C5D",
"x+	c #51596E",
"y+	c #3C4856",
"z+	c #5D667F",
"A+	c #5A637B",
"B+	c #311827",
"C+	c #262731",
"D+	c #252B34",
"E+	c #3D4756",
"F+	c #2D512F",
"G+	c #29612C",
"H+	c #236233",
"I+	c #225D36",
"J+	c #304346",
"K+	c #343E4B",
"L+	c #4C5569",
"M+	c #535C71",
"N+	c #414B5B",
"O+	c #485264",
"P+	c #575F76",
"Q+	c #50596D",
"R+	c #3A4351",
"S+	c #353F4B",
"T+	c #254C3B",
"U+	c #206034",
"V+	c #206333",
"W+	c #205537",
"X+	c #197E3D",
"Y+	c #169335",
"Z+	c #1A8D38",
"`+	c #1A8639",
" @	c #204632",
".@	c #232831",
"+@	c #37414E",
"@@	c #272E37",
"#@	c #232D32",
"$@	c #1C6A3B",
"%@	c #178C38",
"&@	c #169035",
"*@	c #197D3D",
"=@	c #1A7B3D",
"-@	c #1F4F36",
";@	c #204533",
">@	c #333F49",
",@	c #244038",
"'@	c #204B32",
")@	c #1C6F3B",
"!@	c #1A7E3D",
"~@	c #197E3C",
"{@	c #169533",
"]@	c #1A803B",
"^@	c #215737",
"/@	c #224137",
"(@	c #1B7A37",
"_@	c #19AB24",
":@	c #198935",
"<@	c #199234",
"[@	c #199C2C",
"}@	c #1A7E3C",
"|@	c #178F36",
"1@	c #178D36",
"2@	c #18823B",
"3@	c #18813B",
"4@	c #1E8F38",
"5@	c #34993A",
"6@	c #2A6336",
"7@	c #214634",
"8@	c #1E8835",
"9@	c #39B72A",
"0@	c #208A38",
"a@	c #179434",
"b@	c #17A726",
"c@	c #189B30",
"d@	c #178B37",
"e@	c #2A9638",
"f@	c #299936",
"g@	c #23A52F",
"h@	c #4AB835",
"i@	c #367535",
"j@	c #214F32",
"k@	c #1B9230",
"l@	c #40A637",
"m@	c #399C3A",
"n@	c #2A9438",
"o@	c #16A22A",
"p@	c #18B819",
"q@	c #187A3D",
"r@	c #3FB233",
"s@	c #24A52F",
"t@	c #49B735",
"u@	c #357435",
"v@	c #178D31",
"w@	c #20853C",
"x@	c #48AE37",
"y@	c #40A239",
"z@	c #179430",
"A@	c #18B71A",
"  . + @ # $ % & * * * * * * * * * * * * * * * * * * * * * * * * * = - ; > , ' ) ",
"! . ~ { ] ^ / & * * * * * * * * * * * * * * * * * * * * * * * * * ( _ : < [ } | ",
"1 2 3 4 5 6 7 8 9 9 9 9 9 9 9 9 9 9 9 9 9 9 9 9 9 9 9 9 9 9 9 9 9 0 a b + c d e ",
"f < g h i j k l l l l l l l l l l l l l l l l l l l l l l l l l l m n o p q r s ",
"t u v w x y z A A A A A A A A A A A A A A A A A A A A A A A A A A B C D E F + @ ",
"G H I J K L M N N N A O P Q N N N N N N O P P P P P P P P Q N N N R S T U V W W ",
"X Y Z `  ...+.N N N P @.#.$.%.N N N N &.*.=.-.-.-.-.-.-.#.$.%.N N ;.R >.,.0 '.).",
"!.~.{.].M %.N N N &.^./.(._.%.N N N N &.:.<.[.[.[.[.[.[.(.}.N &.N N N A l 9 * * ",
"|.1.{.].2.3.N N 4.5.6.7.8._.%.N N N N &.9.[.[.[.[.[.[.[.0.a.5.b.&.N N A l 9 * * ",
"|.1.{.].2.3.N N c.d.<.[.8._.%.N N N N &.9.[.<.<.<.<.<.[.[.[.e.5.N %.N A l 9 * * ",
"|.1.{.].2.%.f.}.g.<.[.[.8._.%.N N N N &.9.<.h.i.i.j.k.l.[.[.[.a.}.m.Q A l 9 * * ",
"|.1.{.].2.n.o.(.p.[.[.[.8._.%.N N N N &.9.d.q.Q Q Q r./.[.[.[.0.(.#.P A l 9 * * ",
"|.1.{.].2.n.s.[.t.u.v.w.7.x.y.y.y.y.y.P z.d.A.N N N B.C.[.[.[.[.[.-.P A l 9 * * ",
"|.1.{.].2.n.s.[.:.D.E.v.w.F././././././.G.d.A.N N N B.C.[.[.[.[.[.-.P A l 9 * * ",
"|.1.{.].2.n.s.[.H.I.4.u.[.[.[.[.[.[.[.[.[.d.J.%.%.%.4.C.[.[.[.[.[.-.P A l 9 * * ",
"|.1.{.].2.n.s.[.8.H.K.p.[.[.[.[.[.[.[.[.[.[.L.#.#.#.K.p.[.[.[.[.[.-.P A l 9 * * ",
"|.1.{.].2.n.s.[.[.[.[.[.[.[.[.[.[.[.[.[.[.[.[.[.[.[.[.[.[.[.[.[.[.-.P A l 9 * * ",
"|.1.{.].2.n.s.[.[.[.M.N.O.O.O.P.[.[.[.[.[.[.[.[.[.[.[.[.0.Q.R.S.[.-.P A l 9 * * ",
"|.1.{.].M I.R.[.[.[.T.U.V.V.W.X.<.[.[.[.[.[.[.[.[.[.[.[.8.q.Y.Z.w.-.P A l 9 * * ",
"|.1.{.`. +.+++[.[.[.T.@+#+#+#+$+<.p.%+9.9.9.&+[.[.[.[.[.7.*+f.5.w.=+-+}.;+9 * * ",
"|.1.{.>+,+'+N.[.[.[.T.@+#+#+)+$+<.9.B.&.&.N !+[.[.[.[.[.[.w.0.w.[.P.~+'+{+* * * ",
"|.1.{.>+]+V.O.[.[.[.^+/+(+(+U._+<.-.P N N %.s.[.[.[.[.[.[.[.[.[.[.:+(+V.<+* * * ",
"|.1.{.>+]+V.O.[.[.[.<.[+:+:+:+}+[.-.P N N %.s.[.[.[.[.[.[.[.[.[.[.:+(+V.<+* * * ",
"|.1.{.>+]+V.O.[.[.<.|+[.[.[.[.[.[.9.4.&.&.N !+[.[.[.[.[.[.[.[.[.|+1+(+V.<+* * * ",
"|.1.{.>+]+V.O.[.2+X._+M.[.[.[.[.[.3+6.5.5.4+5+[.[.[.[.[.[.[.[.6+7+8+9+V.<+* * * ",
"|.1.{.>+]+V.O.[.0+a+b+c+[.[.[.[.[.[.<.<.<.<.[.[.[.[.[.[.[.[.[.d+#+V.#+V.<+* * * ",
"|.1.{.>+]+V.O.[.e+f+g+h+[.[.[.[.[.[.[.[.[.[.1+i+i+i+j+k+[.[.[.l+m+n+9+V.<+* * * ",
"|.1.{.>+]+V.O.[.<.M.d.[.[.[.[.[.[.[.[.[.[.o+g+p+p+p+q+r+[.[.[.<.d.l+U.V.<+* * * ",
"|.1.{.>+]+V.O.[.[.[.|+s+c+c+c+M.[.[.[.[.[.t+X.#+#+#+@+c+[.M.c+M.[.:+(+V.<+* * * ",
"|.1.{.>+]+V.O.[.[.[.u+v+@+@+w+_+|+[.[.[.[.t+X.#+#+#+@+c+d.x+b+_+[.:+(+V.<+* * * ",
"|.1.{.>+]+V.O.[.[.[.T.(+#+#+y+X.<.[.[.[.[.t+X.V.V.V.U.c+M.f+a+X.|+:+(+V.<+* * * ",
"|.1.{.>+]+V.O.[.[.[.T.@+#+#+#+$+<.[.[.[.[.[.z+A+A+A+A+<.<.e+A+2+[.:+(+V.<+* * * ",
"!.B+C+D+]+V.O.[.[.[.T.@+#+#+#+$+|+[.[.[.[.[.[.[.[.[.[.[.[.[.[.[.[.:+(+E+<+& & & ",
"F+G+H+I+J+K+L+O.O.O.M+N+#+#+#+O+P+O.O.O.O.O.O.O.O.O.O.O.O.O.O.O.O.Q+R+S+T+U+V+W+",
"X+Y+Z+`+ @.@K+V.V.V.V.#+#+#+#+#+V.V.V.V.V.V.V.V.V.V.V.V.V.V.V.V.V.+@@@#@$@%@&@*@",
"@ X+: =@-@;@J+]+]+]+]+]+]+]+]+]+]+]+]+]+]+]+]+]+]+]+]+]+]+]+]+]+]+>@,@'@)@!@~@+ ",
"{@{ + @ =@]@^@D+>+>+>+>+>+>+>+>+>+>+>+>+>+>+>+>+>+>+>+>+>+>+>+>+>+/@(@_@:@<@[@}@",
"|@1@2@3@4@5@6@& * * * * * * * * * * * * * * * * * * * * * * * * * 7@8@9@0@a@b@c@",
"=@d@e@f@g@h@i@& * * * * * * * * * * * * * * * * * * * * * * * * * j@k@l@m@n@o@p@",
"+ q@, r@s@t@u@& * * * * * * * * * * * * * * * * * * * * * * * * * j@v@w@x@y@z@A@"};
