/* XPM */
static char *dd06db99fac640c7daeb07e2fc7d495feVgdI1cuswHyyl4c[] = {
/* columns rows colors chars-per-pixel */
"8 8 37 1 ",
"  c None",
". c #2D2632",
"X c #262C36",
"o c #272F37",
"O c #2D2834",
"+ c #282E38",
"@ c #352C39",
"# c #2A313B",
"$ c #2A323C",
"% c #3B3340",
"& c #444A56",
"* c #444B56",
"= c #464D59",
"- c #464D5A",
"; c #444F60",
": c #4D586B",
"> c #4F586C",
", c #515A6F",
"< c #545D74",
"1 c #555E74",
"2 c #576076",
"3 c #576077",
"4 c #596279",
"5 c #59627A",
"6 c #5A627A",
"7 c #616982",
"8 c #636B85",
"9 c #68708A",
"0 c #767D97",
"q c #787F99",
"w c #7A819B",
"e c #7B829C",
"r c #848BA5",
"t c #9299B3",
"y c #9CA2BB",
"u c #9CA3BB",
"i c #AEB4CE",
/* pixels */
" &====& ",
"@uti00u&",
"%rwtrwe=",
"%0<789r=",
".24qr84$",
".22724:$",
"O,;2<<>#",
" XXXXX+ "
};
